<svg width="99" height="40" viewBox="0 0 99 40" fill="none" xmlns="http://www.w3.org/2000/svg">
<rect width="99" height="40" rx="10" fill="#F0F0F0"/>
<path fill-rule="evenodd" clip-rule="evenodd" d="M24.525 10H24.5933C25.4771 9.99999 26.1898 9.99999 26.7636 10.0545C27.3553 10.1108 27.8708 10.23 28.3344 10.5141C28.8038 10.8017 29.1984 11.1963 29.4861 11.6657C29.7701 12.1293 29.8893 12.6448 29.9456 13.2365C30.0001 13.8103 30.0001 14.523 30.0001 15.4068V15.4752C30.0001 16.0559 30.0001 16.5405 29.9627 16.9341C29.9236 17.3456 29.8387 17.7291 29.6231 18.0808C29.4122 18.425 29.1228 18.7144 28.7786 18.9254C28.4268 19.1409 28.0434 19.2258 27.6319 19.2649C27.2383 19.3024 26.7536 19.3023 26.1729 19.3023H25.068C24.2322 19.3024 23.5353 19.3024 22.982 19.228C22.398 19.1495 21.8707 18.9768 21.447 18.5531C21.0233 18.1294 20.8506 17.6021 20.7721 17.0181C20.6977 16.4648 20.6977 15.7679 20.6978 14.9321V13.8273C20.6978 13.2465 20.6977 12.7619 20.7352 12.3682C20.7743 11.9567 20.8592 11.5733 21.0747 11.2215C21.2857 10.8773 21.5751 10.5879 21.9193 10.377C22.271 10.1614 22.6545 10.0765 23.066 10.0374C23.4596 9.99998 23.9443 9.99999 24.525 10ZM25.3489 15.814C24.8695 15.814 24.6298 15.814 24.4605 15.6939C24.4008 15.6515 24.3486 15.5993 24.3062 15.5396C24.1861 15.3703 24.1861 15.1306 24.1861 14.6512C24.1861 14.1717 24.1861 13.932 24.3062 13.7627C24.3486 13.703 24.4008 13.6509 24.4605 13.6085C24.6298 13.4884 24.8695 13.4884 25.3489 13.4884C25.8284 13.4884 26.0681 13.4884 26.2374 13.6085C26.2971 13.6509 26.3492 13.703 26.3916 13.7627C26.5117 13.932 26.5117 14.1717 26.5117 14.6512C26.5117 15.1306 26.5117 15.3703 26.3916 15.5396C26.3492 15.5993 26.2971 15.6515 26.2374 15.6939C26.0681 15.814 25.8284 15.814 25.3489 15.814Z" fill="#484848"/>
<path fill-rule="evenodd" clip-rule="evenodd" d="M18.0808 10.377C17.7291 10.1614 17.3456 10.0765 16.9341 10.0374C16.5405 9.99998 16.0558 9.99999 15.4751 10H15.4068C14.5231 9.99999 13.8103 9.99999 13.2365 10.0545C12.6448 10.1108 12.1293 10.23 11.6657 10.5141C11.1963 10.8017 10.8017 11.1963 10.5141 11.6657C10.23 12.1293 10.1108 12.6448 10.0545 13.2365C9.99999 13.8103 9.99999 14.523 10 15.4068V15.4751C9.99999 16.0558 9.99998 16.5405 10.0374 16.9341C10.0765 17.3456 10.1614 17.7291 10.377 18.0808C10.5879 18.425 10.8773 18.7144 11.2215 18.9254C11.5733 19.1409 11.9567 19.2258 12.3682 19.2649C12.7618 19.3024 13.2464 19.3023 13.8271 19.3023H14.9321C15.7679 19.3024 16.4648 19.3024 17.0181 19.228C17.6021 19.1495 18.1294 18.9768 18.5531 18.5531C18.9768 18.1294 19.1495 17.6021 19.228 17.0181C19.3024 16.4648 19.3024 15.7679 19.3023 14.9321V13.8273C19.3023 13.2466 19.3024 12.7618 19.2649 12.3682C19.2258 11.9567 19.1409 11.5733 18.9254 11.2215C18.7144 10.8773 18.425 10.5879 18.0808 10.377ZM13.7627 15.6939C13.932 15.814 14.1717 15.814 14.6512 15.814C15.1306 15.814 15.3703 15.814 15.5396 15.6939C15.5993 15.6515 15.6515 15.5993 15.6939 15.5396C15.814 15.3703 15.814 15.1306 15.814 14.6512C15.814 14.1717 15.814 13.932 15.6939 13.7627C15.6515 13.703 15.5993 13.6509 15.5396 13.6085C15.3703 13.4884 15.1306 13.4884 14.6512 13.4884C14.1717 13.4884 13.932 13.4884 13.7627 13.6085C13.703 13.6509 13.6509 13.703 13.6085 13.7627C13.4884 13.932 13.4884 14.1717 13.4884 14.6512C13.4884 15.1306 13.4884 15.3703 13.6085 15.5396C13.6509 15.5993 13.703 15.6515 13.7627 15.6939Z" fill="#484848"/>
<path fill-rule="evenodd" clip-rule="evenodd" d="M17.0181 20.772C17.6021 20.8505 18.1294 21.0232 18.5531 21.4469C18.9768 21.8706 19.1495 22.3979 19.228 22.9819C19.3024 23.5352 19.3024 24.2321 19.3023 25.0679V26.1728C19.3023 26.7535 19.3024 27.2382 19.2649 27.6318C19.2258 28.0433 19.1409 28.4267 18.9254 28.7785C18.7144 29.1227 18.425 29.4121 18.0808 29.623C17.7291 29.8386 17.3456 29.9235 16.9341 29.9626C16.5405 30 16.0558 30 15.4751 30H15.4068C14.523 30 13.8103 30 13.2365 29.9455C12.6448 29.8892 12.1293 29.77 11.6657 29.486C11.1963 29.1983 10.8017 28.8037 10.5141 28.3343C10.23 27.8707 10.1108 27.3552 10.0545 26.7635C9.99999 26.1897 9.99999 25.477 10 24.5932V24.5249C9.99999 23.9442 9.99998 23.4595 10.0374 23.0659C10.0765 22.6544 10.1614 22.2709 10.377 21.9192C10.5879 21.575 10.8773 21.2856 11.2215 21.0746C11.5733 20.8591 11.9567 20.7742 12.3682 20.7351C12.7618 20.6976 13.2465 20.6977 13.8272 20.6977H14.9321C15.7679 20.6976 16.4648 20.6976 17.0181 20.772ZM14.6512 26.5116C14.1717 26.5116 13.932 26.5116 13.7627 26.3915C13.703 26.3491 13.6509 26.297 13.6085 26.2373C13.4884 26.068 13.4884 25.8283 13.4884 25.3488C13.4884 24.8694 13.4884 24.6297 13.6085 24.4604C13.6509 24.4007 13.703 24.3485 13.7627 24.3061C13.932 24.186 14.1717 24.186 14.6512 24.186C15.1306 24.186 15.3703 24.186 15.5396 24.3061C15.5993 24.3485 15.6515 24.4007 15.6939 24.4604C15.814 24.6297 15.814 24.8694 15.814 25.3488C15.814 25.8283 15.814 26.068 15.6939 26.2373C15.6515 26.297 15.5993 26.3491 15.5396 26.3915C15.3703 26.5116 15.1306 26.5116 14.6512 26.5116Z" fill="#484848"/>
<path d="M20.6978 24.6155V24.6512H22.0931C22.0931 23.9834 22.094 23.5351 22.1287 23.1933C22.1623 22.8632 22.2217 22.7107 22.2891 22.6098C22.3739 22.4828 22.4829 22.3738 22.6099 22.289C22.7108 22.2216 22.8633 22.1622 23.1934 22.1286C23.5352 22.0939 23.9835 22.093 24.6513 22.093H26.5117V20.6977H24.6156C23.9927 20.6977 23.473 20.6976 23.0522 20.7404C22.6118 20.7853 22.2031 20.8827 21.8347 21.1288C21.5554 21.3154 21.3155 21.5553 21.1289 21.8346C20.8828 22.203 20.7854 22.6117 20.7405 23.0521C20.6977 23.4729 20.6978 23.9926 20.6978 24.6155Z" fill="#484848"/>
<path d="M30 26.5351V26.5116H28.6046C28.6046 26.9546 28.6043 27.2519 28.5886 27.4821C28.5733 27.706 28.5459 27.8151 28.5161 27.8868C28.3981 28.1718 28.1718 28.3981 27.8868 28.5161C27.8151 28.5459 27.706 28.5733 27.4821 28.5886C27.2519 28.6043 26.9546 28.6046 26.5116 28.6046H24.6512V30H26.5351C26.9486 30 27.2937 30 27.5771 29.9807C27.8721 29.9606 28.1507 29.9172 28.4208 29.8053C29.0476 29.5456 29.5456 29.0476 29.8053 28.4208C29.9172 28.1507 29.9606 27.8721 29.9807 27.5771C30 27.2937 30 26.9486 30 26.5351Z" fill="#484848"/>
<path d="M22.0931 29.3023C22.0931 29.6876 21.7808 30 21.3954 30C21.0101 30 20.6978 29.6876 20.6978 29.3023V26.5116H22.0931V29.3023Z" fill="#484848"/>
<path d="M29.3023 20.6977C28.917 20.6977 28.6046 21.01 28.6046 21.3953V24.6512H30V21.3953C30 21.01 29.6876 20.6977 29.3023 20.6977Z" fill="#484848"/>
<path d="M24.0761 24.6173C24 24.8011 24 25.0341 24 25.5C24 25.9659 24 26.1989 24.0761 26.3827C24.1776 26.6277 24.3723 26.8224 24.6173 26.9239C24.8011 27 25.0341 27 25.5 27C25.9659 27 26.1989 27 26.3827 26.9239C26.6277 26.8224 26.8224 26.6277 26.9239 26.3827C27 26.1989 27 25.9659 27 25.5C27 25.0341 27 24.8011 26.9239 24.6173C26.8224 24.3723 26.6277 24.1776 26.3827 24.0761C26.1989 24 25.9659 24 25.5 24C25.0341 24 24.8011 24 24.6173 24.0761C24.3723 24.1776 24.1776 24.3723 24.0761 24.6173Z" fill="#484848"/>
<path d="M42.98 25V14.92H44.009V19.68L48.608 14.92H49.924L45.227 19.785L50.309 25H48.965L44.009 19.96V25H42.98ZM53.1755 25.21C52.6062 25.21 52.1278 25.1073 51.7405 24.902C51.3578 24.6967 51.0708 24.4237 50.8795 24.083C50.6882 23.7423 50.5925 23.3713 50.5925 22.97C50.5925 22.5593 50.6742 22.2093 50.8375 21.92C51.0055 21.626 51.2318 21.3857 51.5165 21.199C51.8058 21.0123 52.1395 20.87 52.5175 20.772C52.9002 20.6787 53.3225 20.597 53.7845 20.527C54.2512 20.4523 54.7062 20.3893 55.1495 20.338C55.5975 20.282 55.9895 20.2283 56.3255 20.177L55.9615 20.401C55.9755 19.6543 55.8308 19.1013 55.5275 18.742C55.2242 18.3827 54.6968 18.203 53.9455 18.203C53.4275 18.203 52.9888 18.3197 52.6295 18.553C52.2748 18.7863 52.0252 19.155 51.8805 19.659L50.8795 19.365C51.0522 18.6883 51.3998 18.1633 51.9225 17.79C52.4452 17.4167 53.1242 17.23 53.9595 17.23C54.6502 17.23 55.2358 17.3607 55.7165 17.622C56.2018 17.8787 56.5448 18.252 56.7455 18.742C56.8388 18.9613 56.8995 19.2063 56.9275 19.477C56.9555 19.7477 56.9695 20.023 56.9695 20.303V25H56.0525V23.103L56.3185 23.215C56.0618 23.8637 55.6628 24.3583 55.1215 24.699C54.5802 25.0397 53.9315 25.21 53.1755 25.21ZM53.2945 24.321C53.7752 24.321 54.1952 24.2347 54.5545 24.062C54.9138 23.8893 55.2032 23.6537 55.4225 23.355C55.6418 23.0517 55.7842 22.711 55.8495 22.333C55.9055 22.0903 55.9358 21.8243 55.9405 21.535C55.9452 21.241 55.9475 21.0217 55.9475 20.877L56.3395 21.08C55.9895 21.1267 55.6092 21.1733 55.1985 21.22C54.7925 21.2667 54.3912 21.3203 53.9945 21.381C53.6025 21.4417 53.2478 21.514 52.9305 21.598C52.7158 21.6587 52.5082 21.745 52.3075 21.857C52.1068 21.9643 51.9412 22.109 51.8105 22.291C51.6845 22.473 51.6215 22.6993 51.6215 22.97C51.6215 23.1893 51.6752 23.4017 51.7825 23.607C51.8945 23.8123 52.0718 23.9827 52.3145 24.118C52.5618 24.2533 52.8885 24.321 53.2945 24.321ZM58.5048 25V17.44H59.4218L62.3688 23.628L65.3228 17.44H66.2328V25H65.2388V19.638L62.6978 25H62.0468L59.5058 19.638V25H58.5048ZM71.1105 25.21C70.3732 25.21 69.7338 25.0467 69.1925 24.72C68.6558 24.3933 68.2382 23.9337 67.9395 23.341C67.6408 22.7483 67.4915 22.053 67.4915 21.255C67.4915 20.429 67.6385 19.715 67.9325 19.113C68.2265 18.511 68.6395 18.0467 69.1715 17.72C69.7082 17.3933 70.3405 17.23 71.0685 17.23C71.8152 17.23 72.4522 17.4027 72.9795 17.748C73.5068 18.0887 73.9058 18.5787 74.1765 19.218C74.4472 19.8573 74.5708 20.6203 74.5475 21.507H73.4975V21.143C73.4788 20.163 73.2665 19.4233 72.8605 18.924C72.4592 18.4247 71.8712 18.175 71.0965 18.175C70.2845 18.175 69.6615 18.4387 69.2275 18.966C68.7982 19.4933 68.5835 20.2447 68.5835 21.22C68.5835 22.172 68.7982 22.9117 69.2275 23.439C69.6615 23.9617 70.2752 24.223 71.0685 24.223C71.6098 24.223 72.0812 24.0993 72.4825 23.852C72.8885 23.6 73.2082 23.2383 73.4415 22.767L74.4005 23.138C74.1018 23.796 73.6608 24.307 73.0775 24.671C72.4988 25.0303 71.8432 25.21 71.1105 25.21ZM68.2195 21.507V20.646H73.9945V21.507H68.2195ZM79.2159 25.21C78.5206 25.21 77.9326 25.035 77.4519 24.685C76.9713 24.3303 76.6073 23.852 76.3599 23.25C76.1126 22.6433 75.9889 21.9643 75.9889 21.213C75.9889 20.4477 76.1126 19.7663 76.3599 19.169C76.6119 18.567 76.9806 18.0933 77.4659 17.748C77.9513 17.4027 78.5486 17.23 79.2579 17.23C79.9486 17.23 80.5413 17.405 81.0359 17.755C81.5306 18.105 81.9086 18.581 82.1699 19.183C82.4359 19.785 82.5689 20.4617 82.5689 21.213C82.5689 21.969 82.4359 22.648 82.1699 23.25C81.9039 23.852 81.5213 24.3303 81.0219 24.685C80.5226 25.035 79.9206 25.21 79.2159 25.21ZM75.8139 28.36V17.44H76.7379V23.131H76.8499V28.36H75.8139ZM79.1109 24.251C79.6383 24.251 80.0769 24.118 80.4269 23.852C80.7769 23.586 81.0383 23.2243 81.2109 22.767C81.3883 22.305 81.4769 21.787 81.4769 21.213C81.4769 20.6437 81.3906 20.1303 81.2179 19.673C81.0453 19.2157 80.7816 18.854 80.4269 18.588C80.0769 18.322 79.6313 18.189 79.0899 18.189C78.5626 18.189 78.1239 18.3173 77.7739 18.574C77.4286 18.8307 77.1696 19.1877 76.9969 19.645C76.8243 20.0977 76.7379 20.6203 76.7379 21.213C76.7379 21.7963 76.8243 22.319 76.9969 22.781C77.1696 23.2383 77.4309 23.5977 77.7809 23.859C78.1309 24.1203 78.5743 24.251 79.1109 24.251ZM85.9891 25.21C85.4198 25.21 84.9414 25.1073 84.5541 24.902C84.1714 24.6967 83.8844 24.4237 83.6931 24.083C83.5018 23.7423 83.4061 23.3713 83.4061 22.97C83.4061 22.5593 83.4878 22.2093 83.6511 21.92C83.8191 21.626 84.0454 21.3857 84.3301 21.199C84.6194 21.0123 84.9531 20.87 85.3311 20.772C85.7138 20.6787 86.1361 20.597 86.5981 20.527C87.0648 20.4523 87.5198 20.3893 87.9631 20.338C88.4111 20.282 88.8031 20.2283 89.1391 20.177L88.7751 20.401C88.7891 19.6543 88.6444 19.1013 88.3411 18.742C88.0378 18.3827 87.5104 18.203 86.7591 18.203C86.2411 18.203 85.8024 18.3197 85.4431 18.553C85.0884 18.7863 84.8388 19.155 84.6941 19.659L83.6931 19.365C83.8658 18.6883 84.2134 18.1633 84.7361 17.79C85.2588 17.4167 85.9378 17.23 86.7731 17.23C87.4638 17.23 88.0494 17.3607 88.5301 17.622C89.0154 17.8787 89.3584 18.252 89.5591 18.742C89.6524 18.9613 89.7131 19.2063 89.7411 19.477C89.7691 19.7477 89.7831 20.023 89.7831 20.303V25H88.8661V23.103L89.1321 23.215C88.8754 23.8637 88.4764 24.3583 87.9351 24.699C87.3938 25.0397 86.7451 25.21 85.9891 25.21ZM86.1081 24.321C86.5888 24.321 87.0088 24.2347 87.3681 24.062C87.7274 23.8893 88.0168 23.6537 88.2361 23.355C88.4554 23.0517 88.5978 22.711 88.6631 22.333C88.7191 22.0903 88.7494 21.8243 88.7541 21.535C88.7588 21.241 88.7611 21.0217 88.7611 20.877L89.1531 21.08C88.8031 21.1267 88.4228 21.1733 88.0121 21.22C87.6061 21.2667 87.2048 21.3203 86.8081 21.381C86.4161 21.4417 86.0614 21.514 85.7441 21.598C85.5294 21.6587 85.3218 21.745 85.1211 21.857C84.9204 21.9643 84.7548 22.109 84.6241 22.291C84.4981 22.473 84.4351 22.6993 84.4351 22.97C84.4351 23.1893 84.4888 23.4017 84.5961 23.607C84.7081 23.8123 84.8854 23.9827 85.1281 24.118C85.3754 24.2533 85.7021 24.321 86.1081 24.321Z" fill="black"/>
</svg>
