<svg width="40" height="40" viewBox="0 0 40 40" fill="none" xmlns="http://www.w3.org/2000/svg">
<rect width="40" height="40" rx="6" fill="#F0F6FF"/>
<path d="M20 11C17.2145 11 12.5 11.5527 12.5 13.625C12.5 13.6325 12.503 13.6393 12.503 13.6467C12.503 13.652 12.5 13.6565 12.5 13.6625V26.375C12.5 28.4473 17.2145 29 20 29C22.5942 29 27.5 28.4435 27.5 26.3375V13.625C27.5 11.5527 22.7855 11 20 11ZM26 23.2805C25.6865 23.72 23.426 24.5 20 24.5C16.574 24.5 14.3173 23.7433 14 23.3165V18.302C15.6192 19.0183 18.2067 19.25 20 19.25C21.686 19.25 24.3425 19.0115 26 18.2682V23.2805ZM26 16.5305C25.6865 16.97 23.426 17.75 20 17.75C16.574 17.75 14.3173 16.9932 14 16.5665V15.302C15.6192 16.0182 18.2067 16.25 20 16.25C21.7933 16.25 24.3807 16.0175 26 15.3012V16.5305ZM20 12.5C23.5595 12.5 25.547 13.2395 25.9528 13.625C25.5463 14.0105 23.5595 14.75 20 14.75C16.4405 14.75 14.453 14.0105 14.0473 13.625C14.453 13.2395 16.4405 12.5 20 12.5ZM20 27.5C16.5785 27.5 14.3195 26.7448 14 26.3173V25.052C15.6192 25.7683 18.2067 26 20 26C21.686 26 24.3425 25.7615 26 25.0182V26.282C25.6835 26.7215 23.423 27.5 20 27.5Z" fill="#0058DB"/>
</svg>
