<svg width="103" height="40" viewBox="0 0 103 40" fill="none" xmlns="http://www.w3.org/2000/svg">
<rect width="103" height="40" rx="10" fill="#F0F0F0"/>
<path fill-rule="evenodd" clip-rule="evenodd" d="M24.525 10H24.5933C25.4771 9.99999 26.1898 9.99999 26.7636 10.0545C27.3553 10.1108 27.8708 10.23 28.3344 10.5141C28.8038 10.8017 29.1984 11.1963 29.4861 11.6657C29.7701 12.1293 29.8893 12.6448 29.9456 13.2365C30.0001 13.8103 30.0001 14.523 30.0001 15.4068V15.4752C30.0001 16.0559 30.0001 16.5405 29.9627 16.9341C29.9236 17.3456 29.8387 17.7291 29.6231 18.0808C29.4122 18.425 29.1228 18.7144 28.7786 18.9254C28.4268 19.1409 28.0434 19.2258 27.6319 19.2649C27.2383 19.3024 26.7536 19.3023 26.1729 19.3023H25.068C24.2322 19.3024 23.5353 19.3024 22.982 19.228C22.398 19.1495 21.8707 18.9768 21.447 18.5531C21.0233 18.1294 20.8506 17.6021 20.7721 17.0181C20.6977 16.4648 20.6977 15.7679 20.6978 14.9321V13.8273C20.6978 13.2465 20.6977 12.7619 20.7352 12.3682C20.7743 11.9567 20.8592 11.5733 21.0747 11.2215C21.2857 10.8773 21.5751 10.5879 21.9193 10.377C22.271 10.1614 22.6545 10.0765 23.066 10.0374C23.4596 9.99998 23.9443 9.99999 24.525 10ZM25.3489 15.814C24.8695 15.814 24.6298 15.814 24.4605 15.6939C24.4008 15.6515 24.3486 15.5993 24.3062 15.5396C24.1861 15.3703 24.1861 15.1306 24.1861 14.6512C24.1861 14.1717 24.1861 13.932 24.3062 13.7627C24.3486 13.703 24.4008 13.6509 24.4605 13.6085C24.6298 13.4884 24.8695 13.4884 25.3489 13.4884C25.8284 13.4884 26.0681 13.4884 26.2374 13.6085C26.2971 13.6509 26.3492 13.703 26.3916 13.7627C26.5117 13.932 26.5117 14.1717 26.5117 14.6512C26.5117 15.1306 26.5117 15.3703 26.3916 15.5396C26.3492 15.5993 26.2971 15.6515 26.2374 15.6939C26.0681 15.814 25.8284 15.814 25.3489 15.814Z" fill="#484848"/>
<path fill-rule="evenodd" clip-rule="evenodd" d="M18.0808 10.377C17.7291 10.1614 17.3456 10.0765 16.9341 10.0374C16.5405 9.99998 16.0558 9.99999 15.4751 10H15.4068C14.5231 9.99999 13.8103 9.99999 13.2365 10.0545C12.6448 10.1108 12.1293 10.23 11.6657 10.5141C11.1963 10.8017 10.8017 11.1963 10.5141 11.6657C10.23 12.1293 10.1108 12.6448 10.0545 13.2365C9.99999 13.8103 9.99999 14.523 10 15.4068V15.4751C9.99999 16.0558 9.99998 16.5405 10.0374 16.9341C10.0765 17.3456 10.1614 17.7291 10.377 18.0808C10.5879 18.425 10.8773 18.7144 11.2215 18.9254C11.5733 19.1409 11.9567 19.2258 12.3682 19.2649C12.7618 19.3024 13.2464 19.3023 13.8271 19.3023H14.9321C15.7679 19.3024 16.4648 19.3024 17.0181 19.228C17.6021 19.1495 18.1294 18.9768 18.5531 18.5531C18.9768 18.1294 19.1495 17.6021 19.228 17.0181C19.3024 16.4648 19.3024 15.7679 19.3023 14.9321V13.8273C19.3023 13.2466 19.3024 12.7618 19.2649 12.3682C19.2258 11.9567 19.1409 11.5733 18.9254 11.2215C18.7144 10.8773 18.425 10.5879 18.0808 10.377ZM13.7627 15.6939C13.932 15.814 14.1717 15.814 14.6512 15.814C15.1306 15.814 15.3703 15.814 15.5396 15.6939C15.5993 15.6515 15.6515 15.5993 15.6939 15.5396C15.814 15.3703 15.814 15.1306 15.814 14.6512C15.814 14.1717 15.814 13.932 15.6939 13.7627C15.6515 13.703 15.5993 13.6509 15.5396 13.6085C15.3703 13.4884 15.1306 13.4884 14.6512 13.4884C14.1717 13.4884 13.932 13.4884 13.7627 13.6085C13.703 13.6509 13.6509 13.703 13.6085 13.7627C13.4884 13.932 13.4884 14.1717 13.4884 14.6512C13.4884 15.1306 13.4884 15.3703 13.6085 15.5396C13.6509 15.5993 13.703 15.6515 13.7627 15.6939Z" fill="#484848"/>
<path fill-rule="evenodd" clip-rule="evenodd" d="M17.0181 20.772C17.6021 20.8505 18.1294 21.0232 18.5531 21.4469C18.9768 21.8706 19.1495 22.3979 19.228 22.9819C19.3024 23.5352 19.3024 24.2321 19.3023 25.0679V26.1728C19.3023 26.7535 19.3024 27.2382 19.2649 27.6318C19.2258 28.0433 19.1409 28.4267 18.9254 28.7785C18.7144 29.1227 18.425 29.4121 18.0808 29.623C17.7291 29.8386 17.3456 29.9235 16.9341 29.9626C16.5405 30 16.0558 30 15.4751 30H15.4068C14.523 30 13.8103 30 13.2365 29.9455C12.6448 29.8892 12.1293 29.77 11.6657 29.486C11.1963 29.1983 10.8017 28.8037 10.5141 28.3343C10.23 27.8707 10.1108 27.3552 10.0545 26.7635C9.99999 26.1897 9.99999 25.477 10 24.5932V24.5249C9.99999 23.9442 9.99998 23.4595 10.0374 23.0659C10.0765 22.6544 10.1614 22.2709 10.377 21.9192C10.5879 21.575 10.8773 21.2856 11.2215 21.0746C11.5733 20.8591 11.9567 20.7742 12.3682 20.7351C12.7618 20.6976 13.2465 20.6977 13.8272 20.6977H14.9321C15.7679 20.6976 16.4648 20.6976 17.0181 20.772ZM14.6512 26.5116C14.1717 26.5116 13.932 26.5116 13.7627 26.3915C13.703 26.3491 13.6509 26.297 13.6085 26.2373C13.4884 26.068 13.4884 25.8283 13.4884 25.3488C13.4884 24.8694 13.4884 24.6297 13.6085 24.4604C13.6509 24.4007 13.703 24.3485 13.7627 24.3061C13.932 24.186 14.1717 24.186 14.6512 24.186C15.1306 24.186 15.3703 24.186 15.5396 24.3061C15.5993 24.3485 15.6515 24.4007 15.6939 24.4604C15.814 24.6297 15.814 24.8694 15.814 25.3488C15.814 25.8283 15.814 26.068 15.6939 26.2373C15.6515 26.297 15.5993 26.3491 15.5396 26.3915C15.3703 26.5116 15.1306 26.5116 14.6512 26.5116Z" fill="#484848"/>
<path d="M20.6978 24.6155V24.6512H22.0931C22.0931 23.9834 22.094 23.5351 22.1287 23.1933C22.1623 22.8632 22.2217 22.7107 22.2891 22.6098C22.3739 22.4828 22.4829 22.3738 22.6099 22.289C22.7108 22.2216 22.8633 22.1622 23.1934 22.1286C23.5352 22.0939 23.9835 22.093 24.6513 22.093H26.5117V20.6977H24.6156C23.9927 20.6977 23.473 20.6976 23.0522 20.7404C22.6118 20.7853 22.2031 20.8827 21.8347 21.1288C21.5554 21.3154 21.3155 21.5553 21.1289 21.8346C20.8828 22.203 20.7854 22.6117 20.7405 23.0521C20.6977 23.4729 20.6978 23.9926 20.6978 24.6155Z" fill="#484848"/>
<path d="M30 26.5351V26.5116H28.6046C28.6046 26.9546 28.6043 27.2519 28.5886 27.4821C28.5733 27.706 28.5459 27.8151 28.5161 27.8868C28.3981 28.1718 28.1718 28.3981 27.8868 28.5161C27.8151 28.5459 27.706 28.5733 27.4821 28.5886C27.2519 28.6043 26.9546 28.6046 26.5116 28.6046H24.6512V30H26.5351C26.9486 30 27.2937 30 27.5771 29.9807C27.8721 29.9606 28.1507 29.9172 28.4208 29.8053C29.0476 29.5456 29.5456 29.0476 29.8053 28.4208C29.9172 28.1507 29.9606 27.8721 29.9807 27.5771C30 27.2937 30 26.9486 30 26.5351Z" fill="#484848"/>
<path d="M22.0931 29.3023C22.0931 29.6876 21.7808 30 21.3954 30C21.0101 30 20.6978 29.6876 20.6978 29.3023V26.5116H22.0931V29.3023Z" fill="#484848"/>
<path d="M29.3023 20.6977C28.917 20.6977 28.6046 21.01 28.6046 21.3953V24.6512H30V21.3953C30 21.01 29.6876 20.6977 29.3023 20.6977Z" fill="#484848"/>
<path d="M24.0761 24.6173C24 24.8011 24 25.0341 24 25.5C24 25.9659 24 26.1989 24.0761 26.3827C24.1776 26.6277 24.3723 26.8224 24.6173 26.9239C24.8011 27 25.0341 27 25.5 27C25.9659 27 26.1989 27 26.3827 26.9239C26.6277 26.8224 26.8224 26.6277 26.9239 26.3827C27 26.1989 27 25.9659 27 25.5C27 25.0341 27 24.8011 26.9239 24.6173C26.8224 24.3723 26.6277 24.1776 26.3827 24.0761C26.1989 24 25.9659 24 25.5 24C25.0341 24 24.8011 24 24.6173 24.0761C24.3723 24.1776 24.1776 24.3723 24.0761 24.6173Z" fill="#484848"/>
<path d="M45.661 25V15.907H42.14V14.92H50.211V15.907H46.69V25H45.661ZM52.2321 25.21C51.6628 25.21 51.1845 25.1073 50.7971 24.902C50.4145 24.6967 50.1275 24.4237 49.9361 24.083C49.7448 23.7423 49.6491 23.3713 49.6491 22.97C49.6491 22.5593 49.7308 22.2093 49.8941 21.92C50.0621 21.626 50.2885 21.3857 50.5731 21.199C50.8625 21.0123 51.1961 20.87 51.5741 20.772C51.9568 20.6787 52.3791 20.597 52.8411 20.527C53.3078 20.4523 53.7628 20.3893 54.2061 20.338C54.6541 20.282 55.0461 20.2283 55.3821 20.177L55.0181 20.401C55.0321 19.6543 54.8875 19.1013 54.5841 18.742C54.2808 18.3827 53.7535 18.203 53.0021 18.203C52.4841 18.203 52.0455 18.3197 51.6861 18.553C51.3315 18.7863 51.0818 19.155 50.9371 19.659L49.9361 19.365C50.1088 18.6883 50.4565 18.1633 50.9791 17.79C51.5018 17.4167 52.1808 17.23 53.0161 17.23C53.7068 17.23 54.2925 17.3607 54.7731 17.622C55.2585 17.8787 55.6015 18.252 55.8021 18.742C55.8955 18.9613 55.9561 19.2063 55.9841 19.477C56.0121 19.7477 56.0261 20.023 56.0261 20.303V25H55.1091V23.103L55.3751 23.215C55.1185 23.8637 54.7195 24.3583 54.1781 24.699C53.6368 25.0397 52.9881 25.21 52.2321 25.21ZM52.3511 24.321C52.8318 24.321 53.2518 24.2347 53.6111 24.062C53.9705 23.8893 54.2598 23.6537 54.4791 23.355C54.6985 23.0517 54.8408 22.711 54.9061 22.333C54.9621 22.0903 54.9925 21.8243 54.9971 21.535C55.0018 21.241 55.0041 21.0217 55.0041 20.877L55.3961 21.08C55.0461 21.1267 54.6658 21.1733 54.2551 21.22C53.8491 21.2667 53.4478 21.3203 53.0511 21.381C52.6591 21.4417 52.3045 21.514 51.9871 21.598C51.7725 21.6587 51.5648 21.745 51.3641 21.857C51.1635 21.9643 50.9978 22.109 50.8671 22.291C50.7411 22.473 50.6781 22.6993 50.6781 22.97C50.6781 23.1893 50.7318 23.4017 50.8391 23.607C50.9511 23.8123 51.1285 23.9827 51.3711 24.118C51.6185 24.2533 51.9451 24.321 52.3511 24.321ZM57.5614 25V17.44H58.5904V20.723H62.8534V17.44H63.8824V25H62.8534V21.71H58.5904V25H57.5614ZM65.5669 25L65.5529 17.44H66.5889V20.289H67.9049C68.1243 20.289 68.3389 20.2937 68.5489 20.303C68.7589 20.3123 68.9479 20.331 69.1159 20.359C69.4893 20.4337 69.8206 20.5597 70.1099 20.737C70.3993 20.9143 70.6279 21.1593 70.7959 21.472C70.9639 21.78 71.0479 22.1697 71.0479 22.641C71.0479 23.2897 70.8799 23.8007 70.5439 24.174C70.2079 24.5473 69.7856 24.79 69.2769 24.902C69.0856 24.944 68.8779 24.972 68.6539 24.986C68.4299 24.9953 68.2106 25 67.9959 25H65.5669ZM66.5889 24.118H67.9539C68.1079 24.118 68.2829 24.1133 68.4789 24.104C68.6749 24.0947 68.8476 24.069 68.9969 24.027C69.2489 23.957 69.4753 23.817 69.6759 23.607C69.8813 23.3923 69.9839 23.0703 69.9839 22.641C69.9839 22.2163 69.8859 21.8967 69.6899 21.682C69.4939 21.4627 69.2326 21.318 68.9059 21.248C68.7566 21.2153 68.5979 21.1943 68.4299 21.185C68.2666 21.1757 68.1079 21.171 67.9539 21.171H66.5889V24.118ZM71.9509 25V17.44H72.9799V25H71.9509ZM85.0986 25.203L82.4106 22.529L83.1106 21.829L85.7846 24.503L85.0986 25.203ZM81.2626 25.21C80.2592 25.21 79.4122 24.9883 78.7216 24.545C78.0309 24.097 77.5082 23.4787 77.1536 22.69C76.7989 21.9013 76.6216 20.9913 76.6216 19.96C76.6216 18.9287 76.7989 18.0187 77.1536 17.23C77.5082 16.4413 78.0309 15.8253 78.7216 15.382C79.4122 14.934 80.2592 14.71 81.2626 14.71C82.2706 14.71 83.1176 14.934 83.8036 15.382C84.4942 15.8253 85.0169 16.4413 85.3716 17.23C85.7309 18.0187 85.9106 18.9287 85.9106 19.96C85.9106 20.9913 85.7309 21.9013 85.3716 22.69C85.0169 23.4787 84.4942 24.097 83.8036 24.545C83.1176 24.9883 82.2706 25.21 81.2626 25.21ZM81.2626 24.223C82.0512 24.223 82.7092 24.0433 83.2366 23.684C83.7639 23.3247 84.1582 22.8253 84.4196 22.186C84.6856 21.542 84.8186 20.8 84.8186 19.96C84.8186 19.12 84.6856 18.3803 84.4196 17.741C84.1582 17.1017 83.7639 16.6023 83.2366 16.243C82.7092 15.8837 82.0512 15.7017 81.2626 15.697C80.4739 15.697 79.8182 15.8767 79.2956 16.236C78.7729 16.5953 78.3786 17.097 78.1126 17.741C77.8512 18.3803 77.7182 19.12 77.7136 19.96C77.7089 20.8 77.8372 21.5397 78.0986 22.179C78.3646 22.8137 78.7612 23.313 79.2886 23.677C79.8159 24.0363 80.4739 24.2183 81.2626 24.223ZM87.0324 25V14.92H90.9244C91.0224 14.92 91.1321 14.9247 91.2534 14.934C91.3794 14.9387 91.5054 14.9527 91.6314 14.976C92.1588 15.0553 92.6044 15.2397 92.9684 15.529C93.3371 15.8137 93.6148 16.173 93.8014 16.607C93.9928 17.041 94.0884 17.5217 94.0884 18.049C94.0884 18.8097 93.8878 19.47 93.4864 20.03C93.0851 20.59 92.5111 20.9423 91.7644 21.087L91.4074 21.171H88.0614V25H87.0324ZM93.1364 25L91.1484 20.898L92.1354 20.52L94.3194 25H93.1364ZM88.0614 20.191H90.8964C90.9804 20.191 91.0784 20.1863 91.1904 20.177C91.3024 20.1677 91.4121 20.1513 91.5194 20.128C91.8648 20.0533 92.1471 19.911 92.3664 19.701C92.5904 19.491 92.7561 19.2413 92.8634 18.952C92.9754 18.6627 93.0314 18.3617 93.0314 18.049C93.0314 17.7363 92.9754 17.4353 92.8634 17.146C92.7561 16.852 92.5904 16.6 92.3664 16.39C92.1471 16.18 91.8648 16.0377 91.5194 15.963C91.4121 15.9397 91.3024 15.9257 91.1904 15.921C91.0784 15.9117 90.9804 15.907 90.8964 15.907H88.0614V20.191Z" fill="black"/>
</svg>
