<svg width="33" height="32" viewBox="0 0 33 32" fill="none" xmlns="http://www.w3.org/2000/svg">
<g opacity="0.7">
<rect x="0.5" width="32" height="32" rx="8" fill="#EDEDED"/>
<g clip-path="url(#clip0_337_1739)">
<path d="M23.25 10H20.925C20.7509 9.15356 20.2904 8.39301 19.6209 7.84654C18.9515 7.30007 18.1142 7.00109 17.25 7L15.75 7C14.8858 7.00109 14.0485 7.30007 13.3791 7.84654C12.7096 8.39301 12.2491 9.15356 12.075 10H9.75C9.55109 10 9.36032 10.079 9.21967 10.2197C9.07902 10.3603 9 10.5511 9 10.75C9 10.9489 9.07902 11.1397 9.21967 11.2803C9.36032 11.421 9.55109 11.5 9.75 11.5H10.5V21.25C10.5012 22.2442 10.8967 23.1973 11.5997 23.9003C12.3027 24.6033 13.2558 24.9988 14.25 25H18.75C19.7442 24.9988 20.6973 24.6033 21.4003 23.9003C22.1033 23.1973 22.4988 22.2442 22.5 21.25V11.5H23.25C23.4489 11.5 23.6397 11.421 23.7803 11.2803C23.921 11.1397 24 10.9489 24 10.75C24 10.5511 23.921 10.3603 23.7803 10.2197C23.6397 10.079 23.4489 10 23.25 10ZM15.75 8.5H17.25C17.7152 8.50057 18.1688 8.64503 18.5487 8.91358C18.9286 9.18213 19.2161 9.56162 19.3717 10H13.6282C13.7839 9.56162 14.0714 9.18213 14.4513 8.91358C14.8312 8.64503 15.2848 8.50057 15.75 8.5ZM21 21.25C21 21.8467 20.7629 22.419 20.341 22.841C19.919 23.2629 19.3467 23.5 18.75 23.5H14.25C13.6533 23.5 13.081 23.2629 12.659 22.841C12.2371 22.419 12 21.8467 12 21.25V11.5H21V21.25Z" fill="#191919"/>
<path d="M15 20.5C15.1989 20.5 15.3897 20.421 15.5303 20.2803C15.671 20.1397 15.75 19.9489 15.75 19.75V15.25C15.75 15.0511 15.671 14.8603 15.5303 14.7197C15.3897 14.579 15.1989 14.5 15 14.5C14.8011 14.5 14.6103 14.579 14.4697 14.7197C14.329 14.8603 14.25 15.0511 14.25 15.25V19.75C14.25 19.9489 14.329 20.1397 14.4697 20.2803C14.6103 20.421 14.8011 20.5 15 20.5Z" fill="#191919"/>
<path d="M18 20.5C18.1989 20.5 18.3897 20.421 18.5303 20.2803C18.671 20.1397 18.75 19.9489 18.75 19.75V15.25C18.75 15.0511 18.671 14.8603 18.5303 14.7197C18.3897 14.579 18.1989 14.5 18 14.5C17.8011 14.5 17.6103 14.579 17.4697 14.7197C17.329 14.8603 17.25 15.0511 17.25 15.25V19.75C17.25 19.9489 17.329 20.1397 17.4697 20.2803C17.6103 20.421 17.8011 20.5 18 20.5Z" fill="#191919"/>
</g>
</g>
<defs>
<clipPath id="clip0_337_1739">
<rect width="18" height="18" fill="white" transform="translate(7.5 7)"/>
</clipPath>
</defs>
</svg>
