<svg width="32" height="32" viewBox="0 0 32 32" fill="none" xmlns="http://www.w3.org/2000/svg">
<g opacity="0.7">
<rect width="32" height="32" rx="8" fill="#E9FFEB"/>
<g clip-path="url(#clip0_337_1729)">
<rect width="18" height="18" transform="translate(7 7)" fill="#F0FFF1"/>
<path d="M19.75 17.5C19.75 17.6989 19.671 17.8897 19.5303 18.0303C19.3897 18.171 19.1989 18.25 19 18.25H13C12.8011 18.25 12.6103 18.171 12.4697 18.0303C12.329 17.8897 12.25 17.6989 12.25 17.5C12.25 17.3011 12.329 17.1103 12.4697 16.9697C12.6103 16.829 12.8011 16.75 13 16.75H19C19.1989 16.75 19.3897 16.829 19.5303 16.9697C19.671 17.1103 19.75 17.3011 19.75 17.5ZM16.75 19.75H13C12.8011 19.75 12.6103 19.829 12.4697 19.9697C12.329 20.1103 12.25 20.3011 12.25 20.5C12.25 20.6989 12.329 20.8897 12.4697 21.0303C12.6103 21.171 12.8011 21.25 13 21.25H16.75C16.9489 21.25 17.1397 21.171 17.2803 21.0303C17.421 20.8897 17.5 20.6989 17.5 20.5C17.5 20.3011 17.421 20.1103 17.2803 19.9697C17.1397 19.829 16.9489 19.75 16.75 19.75ZM23.5 14.8638V21.25C23.4988 22.2442 23.1033 23.1973 22.4003 23.9004C21.6973 24.6034 20.7442 24.9988 19.75 25H12.25C11.2558 24.9988 10.3027 24.6034 9.59966 23.9004C8.89666 23.1973 8.50119 22.2442 8.5 21.25V10.75C8.50119 9.75582 8.89666 8.80269 9.59966 8.09968C10.3027 7.39668 11.2558 7.00121 12.25 7.00002H15.6363C16.326 6.99824 17.0092 7.13321 17.6464 7.39711C18.2836 7.66102 18.8622 8.04862 19.3488 8.53752L21.9618 11.152C22.4509 11.6382 22.8388 12.2166 23.1028 12.8537C23.3669 13.4909 23.5019 14.1741 23.5 14.8638ZM18.2882 9.59802C18.0522 9.36939 17.7872 9.17271 17.5 9.01302V12.25C17.5 12.4489 17.579 12.6397 17.7197 12.7803C17.8603 12.921 18.0511 13 18.25 13H21.487C21.3272 12.7129 21.1303 12.4481 20.9012 12.2125L18.2882 9.59802ZM22 14.8638C22 14.74 21.976 14.6215 21.9647 14.5H18.25C17.6533 14.5 17.081 14.263 16.659 13.841C16.2371 13.4191 16 12.8468 16 12.25V8.53527C15.8785 8.52402 15.7593 8.50002 15.6363 8.50002H12.25C11.6533 8.50002 11.081 8.73707 10.659 9.15903C10.2371 9.58098 10 10.1533 10 10.75V21.25C10 21.8468 10.2371 22.4191 10.659 22.841C11.081 23.263 11.6533 23.5 12.25 23.5H19.75C20.3467 23.5 20.919 23.263 21.341 22.841C21.7629 22.4191 22 21.8468 22 21.25V14.8638Z" fill="#00D008"/>
</g>
</g>
<defs>
<clipPath id="clip0_337_1729">
<rect width="18" height="18" fill="white" transform="translate(7 7)"/>
</clipPath>
</defs>
</svg>
