<svg width="40" height="40" viewBox="0 0 40 40" fill="none" xmlns="http://www.w3.org/2000/svg">
<rect width="40" height="40" rx="6" fill="#FFF0F0"/>
<g clip-path="url(#clip0_337_1825)">
<path d="M26 16.9917C25.9982 16.3949 25.8175 15.8122 25.4812 15.3191C25.145 14.8259 24.6687 14.4448 24.1137 14.225L22.25 13.4802V12.5C22.4489 12.5 22.6397 12.421 22.7803 12.2803C22.921 12.1397 23 11.9489 23 11.75C23 11.5511 22.921 11.3603 22.7803 11.2197C22.6397 11.079 22.4489 11 22.25 11H17.75C17.5511 11 17.3603 11.079 17.2197 11.2197C17.079 11.3603 17 11.5511 17 11.75C17 11.9489 17.079 12.1397 17.2197 12.2803C17.3603 12.421 17.5511 12.5 17.75 12.5V13.4802L15.8855 14.225C15.4135 14.4184 14.9985 14.7289 14.6799 15.1273C14.3613 15.5257 14.1495 15.9987 14.0646 16.5017C13.9797 17.0047 14.0245 17.5211 14.1947 18.0019C14.3648 18.4828 14.6548 18.9124 15.0372 19.25C14.7173 19.5311 14.4609 19.8771 14.2853 20.2651C14.1097 20.6531 14.0189 21.0741 14.0189 21.5C14.0189 21.9259 14.1097 22.3469 14.2853 22.7349C14.4609 23.1229 14.7173 23.4689 15.0372 23.75C14.584 24.1529 14.2632 24.6835 14.1171 25.2721C13.9711 25.8607 14.0066 26.4798 14.219 27.0478C14.4313 27.6159 14.8106 28.1064 15.307 28.4548C15.8034 28.8032 16.3936 28.9933 17 29H23C23.6065 28.9934 24.1968 28.8035 24.6933 28.4551C25.1897 28.1067 25.5692 27.6162 25.7816 27.0482C25.9941 26.4801 26.0297 25.861 25.8836 25.2723C25.7376 24.6836 25.4168 24.1529 24.9635 23.75C25.2835 23.4689 25.5398 23.1229 25.7154 22.7349C25.891 22.3469 25.9819 21.9259 25.9819 21.5C25.9819 21.0741 25.891 20.6531 25.7154 20.2651C25.5398 19.8771 25.2835 19.5311 24.9635 19.25C25.2878 18.9697 25.5482 18.623 25.727 18.2334C25.9058 17.8439 25.9989 17.4204 26 16.9917ZM24.5 26C24.5 26.3978 24.342 26.7794 24.0607 27.0607C23.7793 27.342 23.3978 27.5 23 27.5H17C16.6022 27.5 16.2206 27.342 15.9393 27.0607C15.658 26.7794 15.5 26.3978 15.5 26C15.5 25.6022 15.658 25.2206 15.9393 24.9393C16.2206 24.658 16.6022 24.5 17 24.5H23C23.3978 24.5 23.7793 24.658 24.0607 24.9393C24.342 25.2206 24.5 25.6022 24.5 26ZM24.5 21.5C24.5 21.8978 24.342 22.2794 24.0607 22.5607C23.7793 22.842 23.3978 23 23 23H17C16.6022 23 16.2206 22.842 15.9393 22.5607C15.658 22.2794 15.5 21.8978 15.5 21.5C15.5 21.1022 15.658 20.7206 15.9393 20.4393C16.2206 20.158 16.6022 20 17 20H23C23.3978 20 23.7793 20.158 24.0607 20.4393C24.342 20.7206 24.5 21.1022 24.5 21.5ZM17 18.5C16.6565 18.4935 16.3257 18.3694 16.0627 18.1482C15.7998 17.9271 15.6208 17.6224 15.5555 17.2851C15.4903 16.9479 15.5428 16.5984 15.7043 16.2952C15.8658 15.9919 16.1265 15.7533 16.4427 15.6192L18.7782 14.6848C18.9175 14.6291 19.0369 14.533 19.121 14.4088C19.2051 14.2846 19.25 14.138 19.25 13.988V12.5H20.75V13.988C20.7499 14.138 20.7949 14.2846 20.879 14.4088C20.963 14.533 21.0825 14.6291 21.2217 14.6848L23.5565 15.6185C23.8732 15.7523 24.1343 15.9908 24.2961 16.2941C24.458 16.5974 24.5107 16.9471 24.4455 17.2847C24.3803 17.6222 24.2012 17.9271 23.938 18.1484C23.6749 18.3696 23.3437 18.4938 23 18.5H17Z" fill="#E20000"/>
</g>
<defs>
<clipPath id="clip0_337_1825">
<rect width="18" height="18" fill="white" transform="translate(11 11)"/>
</clipPath>
</defs>
</svg>
