<svg width="115" height="28" viewBox="0 0 115 28" fill="none" xmlns="http://www.w3.org/2000/svg">
<path d="M21.0312 27.4844H15.9375L13.25 23.4531C13.1042 23.474 12.9635 23.4844 12.8281 23.4844C12.7031 23.4844 12.5781 23.4844 12.4531 23.4844C11.3906 23.4844 10.3646 23.3438 9.375 23.0625C8.39583 22.7917 7.47396 22.4062 6.60938 21.9062C5.75521 21.3958 4.97396 20.7865 4.26562 20.0781C3.55729 19.3698 2.94792 18.5885 2.4375 17.7344C1.9375 16.8698 1.54688 15.9479 1.26562 14.9688C0.994792 13.9792 0.859375 12.9531 0.859375 11.8906C0.859375 10.8281 0.994792 9.80208 1.26562 8.8125C1.54688 7.82292 1.9375 6.90104 2.4375 6.04688C2.94792 5.19271 3.55729 4.41146 4.26562 3.70312C4.97396 2.99479 5.75521 2.39062 6.60938 1.89062C7.47396 1.39062 8.39583 1.00521 9.375 0.734375C10.3646 0.453125 11.3906 0.3125 12.4531 0.3125C13.5156 0.3125 14.5417 0.453125 15.5312 0.734375C16.5208 1.00521 17.4427 1.39062 18.2969 1.89062C19.151 2.39062 19.9323 2.99479 20.6406 3.70312C21.349 4.41146 21.9531 5.19271 22.4531 6.04688C22.9531 6.90104 23.3385 7.82292 23.6094 8.8125C23.8906 9.80208 24.0312 10.8281 24.0312 11.8906C24.0312 12.9948 23.875 14.0677 23.5625 15.1094C23.2604 16.151 22.8281 17.125 22.2656 18.0312C21.7031 18.9271 21.0208 19.7396 20.2188 20.4688C19.4271 21.1979 18.5417 21.8073 17.5625 22.2969L21.0312 27.4844ZM19.5781 11.8906C19.5781 10.9115 19.3906 9.98958 19.0156 9.125C18.6406 8.25 18.1302 7.49479 17.4844 6.85938C16.849 6.21354 16.0938 5.70312 15.2188 5.32812C14.3542 4.95312 13.4323 4.76562 12.4531 4.76562C11.4635 4.76562 10.5365 4.95312 9.67188 5.32812C8.80729 5.70312 8.05208 6.21354 7.40625 6.85938C6.76042 7.49479 6.25 8.25 5.875 9.125C5.5 9.98958 5.3125 10.9115 5.3125 11.8906C5.3125 12.8698 5.5 13.7917 5.875 14.6562C6.25 15.5104 6.76042 16.2604 7.40625 16.9062C8.05208 17.5521 8.80729 18.0625 9.67188 18.4375C10.5365 18.8125 11.4635 19 12.4531 19C13.4323 19 14.3542 18.8125 15.2188 18.4375C16.0938 18.0625 16.849 17.5521 17.4844 16.9062C18.1302 16.2604 18.6406 15.5104 19.0156 14.6562C19.3906 13.7917 19.5781 12.8698 19.5781 11.8906ZM30.8288 5.07812V14.0469H35.3131C35.9277 14.0469 36.5058 13.9323 37.0475 13.7031C37.5892 13.4635 38.0631 13.1406 38.4694 12.7344C38.8756 12.3281 39.1933 11.8542 39.4225 11.3125C39.6621 10.7604 39.7819 10.1771 39.7819 9.5625C39.7819 8.94792 39.6621 8.36979 39.4225 7.82812C39.1933 7.27604 38.8756 6.79688 38.4694 6.39062C38.0631 5.98438 37.5892 5.66667 37.0475 5.4375C36.5058 5.19792 35.9277 5.07812 35.3131 5.07812H30.8288ZM30.8288 23H26.3444V0.59375H35.3131C36.136 0.59375 36.9277 0.703125 37.6881 0.921875C38.4485 1.13021 39.1569 1.43229 39.8131 1.82812C40.4798 2.21354 41.084 2.68229 41.6256 3.23438C42.1777 3.77604 42.6465 4.38021 43.0319 5.04688C43.4277 5.71354 43.7298 6.42708 43.9381 7.1875C44.1569 7.94792 44.2663 8.73958 44.2663 9.5625C44.2663 10.3333 44.1673 11.0833 43.9694 11.8125C43.7819 12.5417 43.5058 13.2344 43.1413 13.8906C42.7871 14.5469 42.3496 15.151 41.8288 15.7031C41.3079 16.2552 40.7246 16.7344 40.0788 17.1406L42.5631 23H37.7975L35.8444 18.4844L30.8288 18.5156V23ZM45.2669 7.3125C45.2669 6.38542 45.444 5.51562 45.7981 4.70312C46.1523 3.89062 46.6315 3.18229 47.2356 2.57812C47.8502 1.96354 48.5638 1.47917 49.3763 1.125C50.1888 0.770833 51.0585 0.59375 51.9856 0.59375H62.2669V5.07812H51.9856C51.6731 5.07812 51.3815 5.13542 51.1106 5.25C50.8398 5.36458 50.6002 5.52604 50.3919 5.73438C50.194 5.93229 50.0377 6.16667 49.9231 6.4375C49.8085 6.70833 49.7513 7 49.7513 7.3125C49.7513 7.625 49.8085 7.92188 49.9231 8.20312C50.0377 8.47396 50.194 8.71354 50.3919 8.92188C50.6002 9.11979 50.8398 9.27604 51.1106 9.39062C51.3815 9.50521 51.6731 9.5625 51.9856 9.5625H56.47C57.3971 9.5625 58.2669 9.73958 59.0794 10.0938C59.9023 10.4375 60.6158 10.9167 61.22 11.5312C61.8346 12.1354 62.3138 12.849 62.6575 13.6719C63.0117 14.4844 63.1888 15.3542 63.1888 16.2812C63.1888 17.2083 63.0117 18.0781 62.6575 18.8906C62.3138 19.7031 61.8346 20.4167 61.22 21.0312C60.6158 21.6354 59.9023 22.1146 59.0794 22.4688C58.2669 22.8229 57.3971 23 56.47 23H46.5169V18.5156H56.47C56.7825 18.5156 57.0742 18.4583 57.345 18.3438C57.6158 18.2292 57.8502 18.0729 58.0481 17.875C58.2565 17.6667 58.4179 17.4271 58.5325 17.1562C58.6471 16.8854 58.7044 16.5938 58.7044 16.2812C58.7044 15.9688 58.6471 15.6771 58.5325 15.4062C58.4179 15.1354 58.2565 14.901 58.0481 14.7031C57.8502 14.4948 57.6158 14.3333 57.345 14.2188C57.0742 14.1042 56.7825 14.0469 56.47 14.0469H51.9856C51.0585 14.0469 50.1888 13.8698 49.3763 13.5156C48.5638 13.1615 47.8502 12.6823 47.2356 12.0781C46.6315 11.4635 46.1523 10.75 45.7981 9.9375C45.444 9.11458 45.2669 8.23958 45.2669 7.3125ZM79.6738 9.59375L76.5488 12.7344C76.3925 12.2969 76.179 11.9062 75.9081 11.5625C75.6373 11.2083 75.33 10.9115 74.9863 10.6719C74.6529 10.4323 74.2883 10.25 73.8925 10.125C73.4967 10 73.0904 9.9375 72.6738 9.9375C72.0904 9.9375 71.5383 10.0573 71.0175 10.2969C70.5071 10.5365 70.0592 10.875 69.6738 11.3125C69.2988 11.7396 69.0019 12.25 68.7831 12.8438C68.5644 13.4375 68.455 14.0938 68.455 14.8125C68.455 15.3958 68.5644 15.9427 68.7831 16.4531C69.0019 16.9635 69.2988 17.4115 69.6738 17.7969C70.0592 18.1823 70.5071 18.4844 71.0175 18.7031C71.5383 18.9219 72.0904 19.0312 72.6738 19.0312C73.0904 19.0312 73.4915 18.974 73.8769 18.8594C74.2623 18.7448 74.6217 18.5833 74.955 18.375C75.2988 18.1562 75.6008 17.8958 75.8613 17.5938C76.1321 17.2812 76.3508 16.9375 76.5175 16.5625L79.6425 19.7031C79.2467 20.2656 78.7883 20.7708 78.2675 21.2188C77.7571 21.6667 77.1998 22.0469 76.5956 22.3594C76.0019 22.6719 75.3717 22.9062 74.705 23.0625C74.0488 23.2292 73.3717 23.3125 72.6738 23.3125C71.4967 23.3125 70.3873 23.0938 69.3456 22.6562C68.3144 22.2083 67.4081 21.599 66.6269 20.8281C65.856 20.0573 65.2467 19.1562 64.7988 18.125C64.3508 17.0938 64.1269 15.9896 64.1269 14.8125C64.1269 13.5312 64.3508 12.3333 64.7988 11.2188C65.2467 10.1042 65.856 9.13542 66.6269 8.3125C67.4081 7.47917 68.3144 6.82292 69.3456 6.34375C70.3873 5.86458 71.4967 5.625 72.6738 5.625C73.3717 5.625 74.054 5.71354 74.7206 5.89062C75.3977 6.06771 76.0383 6.32812 76.6425 6.67188C77.2571 7.00521 77.8196 7.41667 78.33 7.90625C78.8508 8.39583 79.2988 8.95833 79.6738 9.59375ZM97.0806 23H96.0494L94.3931 20.7031C93.9869 21.0677 93.5546 21.4115 93.0963 21.7344C92.6483 22.0469 92.1744 22.3229 91.6744 22.5625C91.1744 22.7917 90.6588 22.974 90.1275 23.1094C89.6067 23.2448 89.0754 23.3125 88.5338 23.3125C87.3567 23.3125 86.2473 23.1146 85.2056 22.7188C84.1744 22.3229 83.2681 21.75 82.4869 21C81.716 20.2396 81.1067 19.3125 80.6588 18.2188C80.2108 17.125 79.9869 15.8802 79.9869 14.4844C79.9869 13.1823 80.2108 11.9896 80.6588 10.9062C81.1067 9.8125 81.716 8.875 82.4869 8.09375C83.2681 7.3125 84.1744 6.70833 85.2056 6.28125C86.2473 5.84375 87.3567 5.625 88.5338 5.625C89.0754 5.625 89.6119 5.69271 90.1431 5.82812C90.6744 5.96354 91.19 6.15104 91.69 6.39062C92.19 6.63021 92.664 6.91146 93.1119 7.23438C93.5702 7.55729 93.9973 7.90625 94.3931 8.28125L96.0494 6.29688H97.0806V23ZM92.7838 14.4844C92.7838 13.901 92.6692 13.3385 92.44 12.7969C92.2213 12.2448 91.9192 11.7604 91.5338 11.3438C91.1483 10.9167 90.6952 10.5781 90.1744 10.3281C89.664 10.0677 89.1171 9.9375 88.5338 9.9375C87.9504 9.9375 87.3983 10.0365 86.8775 10.2344C86.3671 10.4323 85.9192 10.724 85.5338 11.1094C85.1588 11.4948 84.8619 11.974 84.6431 12.5469C84.4244 13.1094 84.315 13.7552 84.315 14.4844C84.315 15.2135 84.4244 15.8646 84.6431 16.4375C84.8619 17 85.1588 17.474 85.5338 17.8594C85.9192 18.2448 86.3671 18.5365 86.8775 18.7344C87.3983 18.9323 87.9504 19.0312 88.5338 19.0312C89.1171 19.0312 89.664 18.9062 90.1744 18.6562C90.6952 18.3958 91.1483 18.0573 91.5338 17.6406C91.9192 17.2135 92.2213 16.7292 92.44 16.1875C92.6692 15.6354 92.7838 15.0677 92.7838 14.4844ZM103.972 23H99.7063V6.26562H100.738L102.144 7.89062C102.831 7.26562 103.607 6.78646 104.472 6.45312C105.347 6.10938 106.258 5.9375 107.206 5.9375C108.227 5.9375 109.191 6.13542 110.097 6.53125C111.003 6.91667 111.795 7.45312 112.472 8.14062C113.149 8.81771 113.68 9.61458 114.066 10.5312C114.461 11.4375 114.659 12.4062 114.659 13.4375V23H110.394V13.4375C110.394 13 110.31 12.5885 110.144 12.2031C109.977 11.8073 109.748 11.4635 109.456 11.1719C109.165 10.8802 108.826 10.651 108.441 10.4844C108.055 10.3177 107.644 10.2344 107.206 10.2344C106.758 10.2344 106.336 10.3177 105.941 10.4844C105.545 10.651 105.201 10.8802 104.909 11.1719C104.618 11.4635 104.389 11.8073 104.222 12.2031C104.055 12.5885 103.972 13 103.972 13.4375V23Z" fill="#151515"/>
</svg>
