<svg width="40" height="40" viewBox="0 0 40 40" fill="none" xmlns="http://www.w3.org/2000/svg">
<rect width="40" height="40" rx="20" fill="#EDEDED"/>
<path d="M20 12C16.6863 12 14 14.6863 14 18V21.5858L13.2929 22.2929C13.0069 22.5789 12.9214 23.009 13.0761 23.3827C13.2309 23.7564 13.5956 24 14 24H26C26.4045 24 26.7691 23.7564 26.9239 23.3827C27.0787 23.009 26.9931 22.5789 26.7071 22.2929L26 21.5858V18C26 14.6863 23.3137 12 20 12Z" fill="#151515"/>
<path d="M20 28C18.3431 28 17 26.6569 17 25H23C23 26.6569 21.6569 28 20 28Z" fill="#151515"/>
</svg>
