<svg width="71" height="40" viewBox="0 0 71 40" fill="none" xmlns="http://www.w3.org/2000/svg">
<rect x="0.5" width="70" height="40" rx="20" fill="#7FFF00"/>
<path fill-rule="evenodd" clip-rule="evenodd" d="M40.025 10H40.0933C40.9771 9.99999 41.6898 9.99999 42.2636 10.0545C42.8553 10.1108 43.3708 10.23 43.8344 10.5141C44.3038 10.8017 44.6984 11.1963 44.9861 11.6657C45.2701 12.1293 45.3893 12.6448 45.4456 13.2365C45.5001 13.8103 45.5001 14.523 45.5001 15.4068V15.4752C45.5001 16.0559 45.5001 16.5405 45.4627 16.9341C45.4236 17.3456 45.3387 17.7291 45.1231 18.0808C44.9122 18.425 44.6228 18.7144 44.2786 18.9254C43.9268 19.1409 43.5434 19.2258 43.1319 19.2649C42.7383 19.3024 42.2536 19.3023 41.6729 19.3023H40.568C39.7322 19.3024 39.0353 19.3024 38.482 19.228C37.898 19.1495 37.3707 18.9768 36.947 18.5531C36.5233 18.1294 36.3506 17.6021 36.2721 17.0181C36.1977 16.4648 36.1977 15.7679 36.1978 14.9321V13.8273C36.1978 13.2465 36.1977 12.7619 36.2352 12.3682C36.2743 11.9567 36.3592 11.5733 36.5747 11.2215C36.7857 10.8773 37.0751 10.5879 37.4193 10.377C37.771 10.1614 38.1545 10.0765 38.566 10.0374C38.9596 9.99998 39.4443 9.99999 40.025 10ZM40.8489 15.814C40.3695 15.814 40.1298 15.814 39.9605 15.6939C39.9008 15.6515 39.8486 15.5993 39.8062 15.5396C39.6861 15.3703 39.6861 15.1306 39.6861 14.6512C39.6861 14.1717 39.6861 13.932 39.8062 13.7627C39.8486 13.703 39.9008 13.6509 39.9605 13.6085C40.1298 13.4884 40.3695 13.4884 40.8489 13.4884C41.3284 13.4884 41.5681 13.4884 41.7374 13.6085C41.7971 13.6509 41.8492 13.703 41.8916 13.7627C42.0117 13.932 42.0117 14.1717 42.0117 14.6512C42.0117 15.1306 42.0117 15.3703 41.8916 15.5396C41.8492 15.5993 41.7971 15.6515 41.7374 15.6939C41.5681 15.814 41.3284 15.814 40.8489 15.814Z" fill="#08AE05"/>
<path fill-rule="evenodd" clip-rule="evenodd" d="M33.5808 10.377C33.2291 10.1614 32.8456 10.0765 32.4341 10.0374C32.0405 9.99998 31.5558 9.99999 30.9751 10H30.9068C30.0231 9.99999 29.3103 9.99999 28.7365 10.0545C28.1448 10.1108 27.6293 10.23 27.1657 10.5141C26.6963 10.8017 26.3017 11.1963 26.0141 11.6657C25.73 12.1293 25.6108 12.6448 25.5545 13.2365C25.5 13.8103 25.5 14.523 25.5 15.4068V15.4751C25.5 16.0558 25.5 16.5405 25.5374 16.9341C25.5765 17.3456 25.6614 17.7291 25.877 18.0808C26.0879 18.425 26.3773 18.7144 26.7215 18.9254C27.0733 19.1409 27.4567 19.2258 27.8682 19.2649C28.2618 19.3024 28.7464 19.3023 29.3271 19.3023H30.4321C31.2679 19.3024 31.9648 19.3024 32.5181 19.228C33.1021 19.1495 33.6294 18.9768 34.0531 18.5531C34.4768 18.1294 34.6495 17.6021 34.728 17.0181C34.8024 16.4648 34.8024 15.7679 34.8023 14.9321V13.8273C34.8023 13.2466 34.8024 12.7618 34.7649 12.3682C34.7258 11.9567 34.6409 11.5733 34.4254 11.2215C34.2144 10.8773 33.925 10.5879 33.5808 10.377ZM29.2627 15.6939C29.432 15.814 29.6717 15.814 30.1512 15.814C30.6306 15.814 30.8703 15.814 31.0396 15.6939C31.0993 15.6515 31.1515 15.5993 31.1939 15.5396C31.314 15.3703 31.314 15.1306 31.314 14.6512C31.314 14.1717 31.314 13.932 31.1939 13.7627C31.1515 13.703 31.0993 13.6509 31.0396 13.6085C30.8703 13.4884 30.6306 13.4884 30.1512 13.4884C29.6717 13.4884 29.432 13.4884 29.2627 13.6085C29.203 13.6509 29.1509 13.703 29.1085 13.7627C28.9884 13.932 28.9884 14.1717 28.9884 14.6512C28.9884 15.1306 28.9884 15.3703 29.1085 15.5396C29.1509 15.5993 29.203 15.6515 29.2627 15.6939Z" fill="#08AE05"/>
<path fill-rule="evenodd" clip-rule="evenodd" d="M32.5181 20.7721C33.1021 20.8506 33.6294 21.0233 34.0531 21.447C34.4768 21.8707 34.6495 22.398 34.728 22.982C34.8024 23.5353 34.8024 24.2322 34.8023 25.068V26.1729C34.8023 26.7536 34.8024 27.2383 34.7649 27.6319C34.7258 28.0434 34.6409 28.4268 34.4254 28.7786C34.2144 29.1228 33.925 29.4122 33.5808 29.6231C33.2291 29.8387 32.8456 29.9236 32.4341 29.9627C32.0405 30.0001 31.5558 30.0001 30.9751 30.0001H30.9068C30.023 30.0001 29.3103 30.0001 28.7365 29.9456C28.1448 29.8893 27.6293 29.7701 27.1657 29.4861C26.6963 29.1984 26.3017 28.8038 26.0141 28.3344C25.73 27.8708 25.6108 27.3553 25.5545 26.7636C25.5 26.1898 25.5 25.4771 25.5 24.5933V24.525C25.5 23.9443 25.5 23.4596 25.5374 23.066C25.5765 22.6545 25.6614 22.271 25.877 21.9193C26.0879 21.5751 26.3773 21.2857 26.7215 21.0747C27.0733 20.8592 27.4567 20.7743 27.8682 20.7352C28.2618 20.6977 28.7465 20.6978 29.3272 20.6978H30.4321C31.2679 20.6977 31.9648 20.6977 32.5181 20.7721ZM30.1512 26.5117C29.6717 26.5117 29.432 26.5117 29.2627 26.3916C29.203 26.3492 29.1509 26.2971 29.1085 26.2374C28.9884 26.0681 28.9884 25.8284 28.9884 25.3489C28.9884 24.8695 28.9884 24.6298 29.1085 24.4605C29.1509 24.4008 29.203 24.3486 29.2627 24.3062C29.432 24.1861 29.6717 24.1861 30.1512 24.1861C30.6306 24.1861 30.8703 24.1861 31.0396 24.3062C31.0993 24.3486 31.1515 24.4008 31.1939 24.4605C31.314 24.6298 31.314 24.8695 31.314 25.3489C31.314 25.8284 31.314 26.0681 31.1939 26.2374C31.1515 26.2971 31.0993 26.3492 31.0396 26.3916C30.8703 26.5117 30.6306 26.5117 30.1512 26.5117Z" fill="#08AE05"/>
<path d="M36.1978 24.6156V24.6513H37.5931C37.5931 23.9835 37.594 23.5352 37.6287 23.1934C37.6623 22.8633 37.7217 22.7108 37.7891 22.6099C37.8739 22.4829 37.9829 22.3739 38.1099 22.2891C38.2108 22.2217 38.3633 22.1623 38.6934 22.1287C39.0352 22.094 39.4835 22.0931 40.1513 22.0931H42.0117V20.6978H40.1156C39.4927 20.6978 38.973 20.6977 38.5522 20.7405C38.1118 20.7854 37.7031 20.8828 37.3347 21.1289C37.0554 21.3155 36.8155 21.5554 36.6289 21.8347C36.3828 22.2031 36.2854 22.6118 36.2405 23.0522C36.1977 23.473 36.1978 23.9927 36.1978 24.6156Z" fill="#08AE05"/>
<path d="M45.5 26.5352V26.5117H44.1046C44.1046 26.9547 44.1043 27.252 44.0886 27.4822C44.0733 27.7061 44.0459 27.8152 44.0161 27.8869C43.8981 28.1719 43.6718 28.3982 43.3868 28.5162C43.3151 28.546 43.206 28.5734 42.9821 28.5887C42.7519 28.6044 42.4546 28.6047 42.0116 28.6047H40.1512V30.0001H42.0351C42.4486 30.0001 42.7937 30.0001 43.0771 29.9808C43.3721 29.9607 43.6507 29.9173 43.9208 29.8054C44.5476 29.5457 45.0456 29.0477 45.3053 28.4209C45.4172 28.1508 45.4606 27.8722 45.4807 27.5772C45.5 27.2938 45.5 26.9487 45.5 26.5352Z" fill="#08AE05"/>
<path d="M37.5931 29.3024C37.5931 29.6877 37.2808 30.0001 36.8954 30.0001C36.5101 30.0001 36.1978 29.6877 36.1978 29.3024V26.5117H37.5931V29.3024Z" fill="#08AE05"/>
<path d="M44.8023 20.6978C44.417 20.6978 44.1046 21.0101 44.1046 21.3954V24.6513H45.5V21.3954C45.5 21.0101 45.1876 20.6978 44.8023 20.6978Z" fill="#08AE05"/>
<path d="M39.5761 24.6173C39.5 24.8011 39.5 25.0341 39.5 25.5C39.5 25.9659 39.5 26.1989 39.5761 26.3827C39.6776 26.6277 39.8723 26.8224 40.1173 26.9239C40.3011 27 40.5341 27 41 27C41.4659 27 41.6989 27 41.8827 26.9239C42.1277 26.8224 42.3224 26.6277 42.4239 26.3827C42.5 26.1989 42.5 25.9659 42.5 25.5C42.5 25.0341 42.5 24.8011 42.4239 24.6173C42.3224 24.3723 42.1277 24.1776 41.8827 24.0761C41.6989 24 41.4659 24 41 24C40.5341 24 40.3011 24 40.1173 24.0761C39.8723 24.1776 39.6776 24.3723 39.5761 24.6173Z" fill="#08AE05"/>
</svg>
