<svg width="71" height="40" viewBox="0 0 71 40" fill="none" xmlns="http://www.w3.org/2000/svg">
<path d="M25.5 24.9C25.5 23.5906 25.5 22.9359 25.7947 22.455C25.9596 22.1859 26.1859 21.9596 26.455 21.7947C26.9359 21.5 27.5906 21.5 28.9 21.5H30C31.8856 21.5 32.8284 21.5 33.4142 22.0858C34 22.6716 34 23.6144 34 25.5V26.6C34 27.9094 34 28.5641 33.7053 29.045C33.5404 29.3141 33.3141 29.5404 33.045 29.7053C32.5641 30 31.9094 30 30.6 30C28.6359 30 27.6539 30 26.9325 29.5579C26.5288 29.3106 26.1894 28.9712 25.9421 28.5675C25.5 27.8461 25.5 26.8641 25.5 24.9Z" stroke="#71757A" stroke-width="1.5"/>
<path d="M37 13.4C37 12.0906 37 11.4359 37.2947 10.955C37.4596 10.6859 37.6859 10.4596 37.955 10.2947C38.4359 10 39.0906 10 40.4 10C42.3641 10 43.3461 10 44.0675 10.4421C44.4712 10.6894 44.8106 11.0288 45.0579 11.4325C45.5 12.1539 45.5 13.1359 45.5 15.1C45.5 16.4094 45.5 17.0641 45.2053 17.545C45.0404 17.8141 44.8141 18.0404 44.545 18.2053C44.0641 18.5 43.4094 18.5 42.1 18.5H41C39.1144 18.5 38.1716 18.5 37.5858 17.9142C37 17.3284 37 16.3856 37 14.5V13.4Z" stroke="#71757A" stroke-width="1.5"/>
<path d="M40 14.25C40 13.7346 40 13.4769 40.1291 13.2949C40.1747 13.2307 40.2307 13.1747 40.2949 13.1291C40.4769 13 40.7346 13 41.25 13C41.7654 13 42.0231 13 42.2051 13.1291C42.2693 13.1747 42.3253 13.2307 42.3709 13.2949C42.5 13.4769 42.5 13.7346 42.5 14.25C42.5 14.7654 42.5 15.0231 42.3709 15.2051C42.3253 15.2693 42.2693 15.3253 42.2051 15.3709C42.0231 15.5 41.7654 15.5 41.25 15.5C40.7346 15.5 40.4769 15.5 40.2949 15.3709C40.2307 15.3253 40.1747 15.2693 40.1291 15.2051C40 15.0231 40 14.7654 40 14.25Z" fill="#71757A"/>
<path d="M36.25 30C36.25 30.4142 36.5858 30.75 37 30.75C37.4142 30.75 37.75 30.4142 37.75 30H36.25ZM42.5 20.75H40.5V22.25H42.5V20.75ZM36.25 27V30H37.75V27H36.25ZM40.5 20.75C39.8134 20.75 39.242 20.7491 38.781 20.796C38.3075 20.8441 37.8682 20.9489 37.4722 21.2135L38.3055 22.4607C38.414 22.3882 38.578 22.3244 38.9328 22.2883C39.3002 22.2509 39.7822 22.25 40.5 22.25V20.75ZM37.75 25C37.75 24.2822 37.7509 23.8002 37.7883 23.4328C37.8244 23.078 37.8882 22.914 37.9607 22.8055L36.7135 21.9722C36.4489 22.3682 36.3441 22.8075 36.296 23.281C36.2491 23.742 36.25 24.3134 36.25 25H37.75ZM37.4722 21.2135C37.1719 21.4141 36.9141 21.6719 36.7135 21.9722L37.9607 22.8055C38.0519 22.669 38.169 22.5519 38.3055 22.4607L37.4722 21.2135Z" fill="#71757A"/>
<path d="M46.25 21.5C46.25 21.0858 45.9142 20.75 45.5 20.75C45.0858 20.75 44.75 21.0858 44.75 21.5H46.25ZM40.5 30.75H42.5V29.25H40.5V30.75ZM46.25 25V21.5H44.75V25H46.25ZM42.5 30.75C42.9557 30.75 43.335 30.7504 43.6454 30.7292C43.9625 30.7076 44.262 30.661 44.5524 30.5407L43.9784 29.1548C43.9012 29.1868 43.784 29.2163 43.5433 29.2327C43.2958 29.2496 42.9762 29.25 42.5 29.25V30.75ZM44.75 27C44.75 27.4762 44.7496 27.7958 44.7327 28.0433C44.7163 28.284 44.6868 28.4012 44.6548 28.4784L46.0407 29.0524C46.161 28.762 46.2076 28.4625 46.2292 28.1454C46.2504 27.835 46.25 27.4557 46.25 27H44.75ZM44.5524 30.5407C45.2262 30.2616 45.7616 29.7262 46.0407 29.0524L44.6548 28.4784C44.528 28.7846 44.2846 29.0279 43.9784 29.1548L44.5524 30.5407Z" fill="#71757A"/>
<path d="M25.5 15.1C25.5 13.1359 25.5 12.1539 25.9421 11.4325C26.1894 11.0288 26.5288 10.6894 26.9325 10.4421C27.6539 10 28.6359 10 30.6 10C31.9094 10 32.5641 10 33.045 10.2947C33.3141 10.4596 33.5404 10.6859 33.7053 10.955C34 11.4359 34 12.0906 34 13.4V14.5C34 16.3856 34 17.3284 33.4142 17.9142C32.8284 18.5 31.8856 18.5 30 18.5H28.9C27.5906 18.5 26.9359 18.5 26.455 18.2053C26.1859 18.0404 25.9596 17.8141 25.7947 17.545C25.5 17.0641 25.5 16.4094 25.5 15.1Z" stroke="#71757A" stroke-width="1.5"/>
<path d="M28.5 14.25C28.5 13.7346 28.5 13.4769 28.6291 13.2949C28.6747 13.2307 28.7307 13.1747 28.7949 13.1291C28.9769 13 29.2346 13 29.75 13C30.2654 13 30.5231 13 30.7051 13.1291C30.7693 13.1747 30.8253 13.2307 30.8709 13.2949C31 13.4769 31 13.7346 31 14.25C31 14.7654 31 15.0231 30.8709 15.2051C30.8253 15.2693 30.7693 15.3253 30.7051 15.3709C30.5231 15.5 30.2654 15.5 29.75 15.5C29.2346 15.5 28.9769 15.5 28.7949 15.3709C28.7307 15.3253 28.6747 15.2693 28.6291 15.2051C28.5 15.0231 28.5 14.7654 28.5 14.25Z" fill="#71757A"/>
<path d="M28.5 25.75C28.5 25.2346 28.5 24.9769 28.6291 24.7949C28.6747 24.7307 28.7307 24.6747 28.7949 24.6291C28.9769 24.5 29.2346 24.5 29.75 24.5C30.2654 24.5 30.5231 24.5 30.7051 24.6291C30.7693 24.6747 30.8253 24.7307 30.8709 24.7949C31 24.9769 31 25.2346 31 25.75C31 26.2654 31 26.5231 30.8709 26.7051C30.8253 26.7693 30.7693 26.8253 30.7051 26.8709C30.5231 27 30.2654 27 29.75 27C29.2346 27 28.9769 27 28.7949 26.8709C28.7307 26.8253 28.6747 26.7693 28.6291 26.7051C28.5 26.5231 28.5 26.2654 28.5 25.75Z" fill="#71757A"/>
<path d="M39.5 25.75C39.5 25.0478 39.5 24.6967 39.6685 24.4444C39.7415 24.3352 39.8352 24.2415 39.9444 24.1685C40.1967 24 40.5478 24 41.25 24C41.9522 24 42.3033 24 42.5556 24.1685C42.6648 24.2415 42.7585 24.3352 42.8315 24.4444C43 24.6967 43 25.0478 43 25.75C43 26.4522 43 26.8033 42.8315 27.0556C42.7585 27.1648 42.6648 27.2585 42.5556 27.3315C42.3033 27.5 41.9522 27.5 41.25 27.5C40.5478 27.5 40.1967 27.5 39.9444 27.3315C39.8352 27.2585 39.7415 27.1648 39.6685 27.0556C39.5 26.8033 39.5 26.4522 39.5 25.75Z" fill="#71757A"/>
</svg>
