<svg width="21" height="21" viewBox="0 0 21 21" fill="none" xmlns="http://www.w3.org/2000/svg">
<g clip-path="url(#clip0_337_2050)">
<path d="M10.4006 3.43221C9.89758 2.6299 9.01739 2.14238 8.07035 2.1416C7.12332 2.14076 6.24235 2.62673 5.7378 3.42821L4.60714 5.22466C4.52668 5.35254 4.50036 5.5072 4.53384 5.6545C4.56746 5.80186 4.65817 5.92981 4.78605 6.0102L7.17325 7.51063C7.30126 7.59109 7.45605 7.61735 7.60341 7.5836C7.75078 7.54986 7.87872 7.45888 7.95899 7.33075L10.4006 3.43221Z" fill="white"/>
<path d="M10.8513 2.68506L10.8499 2.68428L13.323 6.62863L13.0411 6.80806C12.9721 6.852 12.9335 6.93103 12.9414 7.01252C12.9493 7.09401 13.0023 7.16421 13.0785 7.19409L16.6951 8.61335C16.7598 8.63877 16.8328 8.63167 16.8914 8.59431C16.95 8.55696 16.9873 8.49385 16.9917 8.4245L17.2365 4.54699C17.2417 4.46525 17.2005 4.38763 17.13 4.34595C17.0595 4.30433 16.9716 4.30575 16.9026 4.34975L16.6636 4.50196L15.2541 2.25432C14.9427 1.75751 14.3975 1.45587 13.8111 1.45587H9.0061C9.75951 1.58782 10.4323 2.02901 10.8513 2.68506Z" fill="white"/>
<path d="M17.7437 14.3092C18.6906 14.3103 19.5717 13.8247 20.0765 13.0233C20.5811 12.2221 20.6386 11.2177 20.2287 10.364L19.3094 8.4505C19.244 8.3143 19.1271 8.20971 18.9845 8.15971C18.8419 8.10971 18.6853 8.11842 18.5491 8.18397L16.0084 9.40638C15.8722 9.47193 15.7676 9.58897 15.7177 9.73169C15.6678 9.87441 15.6767 10.0311 15.7425 10.1673L17.7437 14.3092Z" fill="white"/>
<path d="M18.1362 15.0885L18.1377 15.0876L13.4821 15.0821L13.4802 14.748C13.4798 14.6661 13.4334 14.5914 13.3602 14.5547C13.2871 14.5181 13.1994 14.5256 13.1336 14.5742L10.0073 16.8806C9.95134 16.9219 9.9185 16.9874 9.91889 17.057C9.91927 17.1265 9.95283 17.1916 10.0093 17.2322L13.1615 19.5032C13.2279 19.551 13.3156 19.5575 13.3884 19.52C13.4611 19.4824 13.5067 19.4073 13.5062 19.3254L13.5046 19.042L16.1577 19.0451C16.7441 19.0458 17.2896 18.7448 17.6017 18.2483L20.159 14.1804C19.6463 14.7481 18.9147 15.0829 18.1362 15.0885Z" fill="white"/>
<path d="M4.37904 17.6975C4.87966 18.5013 5.75837 18.9915 6.7054 18.9951L8.82813 19.0034C8.97924 19.004 9.12441 18.9445 9.23165 18.838C9.33888 18.7315 9.3994 18.5868 9.39985 18.4357L9.40895 15.6162C9.40947 15.4651 9.34978 15.3198 9.24313 15.2127C9.13648 15.1055 8.9915 15.0451 8.84039 15.0449L4.24045 15.0374C3.82597 15.889 3.87836 16.8937 4.37904 17.6975Z" fill="white"/>
<path d="M5.70651 11.01C5.78045 11.0453 5.86781 11.0362 5.93278 10.9863C5.99775 10.9365 6.02924 10.8543 6.01427 10.7739L5.30364 6.95439C5.29093 6.88606 5.24628 6.82793 5.18363 6.79793C5.12092 6.76792 5.04769 6.76973 4.98646 6.80277L1.56738 8.64774C1.49531 8.68664 1.45117 8.76265 1.45324 8.84446C1.45524 8.92634 1.50305 9.00008 1.57686 9.03544L1.83262 9.15777L0.671764 11.5433C0.4151 12.0706 0.447812 12.6928 0.758286 13.1903L3.30202 17.2666C3.01509 16.5576 3.03316 15.7533 3.36789 15.0504L3.36821 15.0521L5.40513 10.8658L5.70651 11.01Z" fill="white"/>
</g>
<defs>
<clipPath id="clip0_337_2050">
<rect width="20" height="20" fill="white" transform="translate(0.5 0.5)"/>
</clipPath>
</defs>
</svg>
