<svg width="242" height="47" viewBox="0 0 242 47" fill="none" xmlns="http://www.w3.org/2000/svg">
<path d="M0.94 40.76V28.904C1.98 28.904 2.86 28.648 3.58 28.136C4.316 27.608 4.916 26.872 5.38 25.928C5.844 24.968 6.212 23.848 6.484 22.568C6.756 21.288 6.956 19.896 7.084 18.392C7.244 16.472 7.388 14.584 7.516 12.728C7.644 10.856 7.772 8.92 7.9 6.92C8.028 4.904 8.172 2.728 8.332 0.391999L31.276 0.439999V28.904H33.916V40.76H27.388V35H7.468V40.76H0.94ZM10.684 28.904H24.748V6.536L14.284 6.488C14.172 8.072 14.076 9.528 13.996 10.856C13.932 12.184 13.852 13.528 13.756 14.888C13.66 16.248 13.532 17.768 13.372 19.448C13.212 21.128 13.052 22.512 12.892 23.6C12.732 24.672 12.484 25.608 12.148 26.408C11.828 27.208 11.34 28.04 10.684 28.904ZM45.4281 35.72C43.5721 35.72 41.9961 35.368 40.7001 34.664C39.4201 33.944 38.4441 32.992 37.7721 31.808C37.1161 30.608 36.7881 29.288 36.7881 27.848C36.7881 26.648 36.9721 25.552 37.3401 24.56C37.7081 23.568 38.3001 22.696 39.1161 21.944C39.9481 21.176 41.0601 20.536 42.4521 20.024C43.4121 19.672 44.5561 19.36 45.8841 19.088C47.2121 18.816 48.7161 18.56 50.3961 18.32C52.0761 18.064 53.9241 17.784 55.9401 17.48L53.5881 18.776C53.5881 17.24 53.2201 16.112 52.4841 15.392C51.7481 14.672 50.5161 14.312 48.7881 14.312C47.8281 14.312 46.8281 14.544 45.7881 15.008C44.7481 15.472 44.0201 16.296 43.6041 17.48L37.7001 15.608C38.3561 13.464 39.5881 11.72 41.3961 10.376C43.2041 9.032 45.6681 8.36 48.7881 8.36C51.0761 8.36 53.1081 8.712 54.8841 9.416C56.6601 10.12 58.0041 11.336 58.9161 13.064C59.4281 14.024 59.7321 14.984 59.8281 15.944C59.9241 16.904 59.9721 17.976 59.9721 19.16V35H54.2601V29.672L55.0761 30.776C53.8121 32.52 52.4441 33.784 50.9721 34.568C49.5161 35.336 47.6681 35.72 45.4281 35.72ZM46.8201 30.584C48.0201 30.584 49.0281 30.376 49.8441 29.96C50.6761 29.528 51.3321 29.04 51.8121 28.496C52.3081 27.952 52.6441 27.496 52.8201 27.128C53.1561 26.424 53.3481 25.608 53.3961 24.68C53.4601 23.736 53.4921 22.952 53.4921 22.328L55.4121 22.808C53.4761 23.128 51.9081 23.4 50.7081 23.624C49.5081 23.832 48.5401 24.024 47.8041 24.2C47.0681 24.376 46.4201 24.568 45.8601 24.776C45.2201 25.032 44.7001 25.312 44.3001 25.616C43.9161 25.904 43.6281 26.224 43.4361 26.576C43.2601 26.928 43.1721 27.32 43.1721 27.752C43.1721 28.344 43.3161 28.856 43.6041 29.288C43.9081 29.704 44.3321 30.024 44.8761 30.248C45.4201 30.472 46.0681 30.584 46.8201 30.584ZM62.3725 35L71.6365 21.896L62.5645 9.08H70.2445L75.4285 16.76L80.5165 9.08H88.1965L79.1245 21.896L88.4365 35H80.7565L75.4285 27.032L70.0525 35H62.3725ZM114.427 9.08V35H108.187V19.16L96.4754 35H91.2914V9.08H97.5314V24.392L109.291 9.08H114.427ZM120.144 35V9.08H132.288C133.248 9.08 134.088 9.136 134.808 9.248C135.528 9.344 136.128 9.464 136.608 9.608C137.792 9.96 138.872 10.648 139.848 11.672C140.824 12.696 141.312 14.184 141.312 16.136C141.312 17.288 141.128 18.224 140.76 18.944C140.392 19.648 139.904 20.232 139.296 20.696C139.008 20.904 138.72 21.08 138.432 21.224C138.144 21.368 137.856 21.48 137.568 21.56C138.24 21.656 138.848 21.832 139.392 22.088C140.256 22.472 141.008 23.08 141.648 23.912C142.288 24.728 142.608 25.944 142.608 27.56C142.608 29.288 142.184 30.76 141.336 31.976C140.504 33.192 139.248 34.04 137.568 34.52C136.992 34.68 136.312 34.8 135.528 34.88C134.76 34.96 133.952 35 133.104 35H120.144ZM126.768 30.056H132.624C132.96 30.056 133.304 30.024 133.656 29.96C134.024 29.88 134.352 29.784 134.64 29.672C135.104 29.48 135.432 29.152 135.624 28.688C135.832 28.224 135.936 27.752 135.936 27.272C135.936 26.6 135.784 26.072 135.48 25.688C135.192 25.304 134.864 25.032 134.496 24.872C134.192 24.728 133.856 24.648 133.488 24.632C133.136 24.6 132.848 24.584 132.624 24.584H126.768V30.056ZM126.768 19.544H130.752C131.264 19.544 131.744 19.52 132.192 19.472C132.656 19.408 133.04 19.304 133.344 19.16C133.76 18.968 134.072 18.664 134.28 18.248C134.488 17.816 134.592 17.336 134.592 16.808C134.592 16.248 134.472 15.744 134.232 15.296C134.008 14.832 133.632 14.52 133.104 14.36C132.752 14.232 132.304 14.16 131.76 14.144C131.232 14.128 130.896 14.12 130.752 14.12H126.768V19.544ZM153.666 35.72C151.81 35.72 150.234 35.368 148.938 34.664C147.658 33.944 146.682 32.992 146.01 31.808C145.354 30.608 145.026 29.288 145.026 27.848C145.026 26.648 145.21 25.552 145.578 24.56C145.946 23.568 146.538 22.696 147.354 21.944C148.186 21.176 149.298 20.536 150.69 20.024C151.65 19.672 152.794 19.36 154.122 19.088C155.45 18.816 156.954 18.56 158.634 18.32C160.314 18.064 162.162 17.784 164.178 17.48L161.826 18.776C161.826 17.24 161.458 16.112 160.722 15.392C159.986 14.672 158.754 14.312 157.026 14.312C156.066 14.312 155.066 14.544 154.026 15.008C152.986 15.472 152.258 16.296 151.842 17.48L145.938 15.608C146.594 13.464 147.826 11.72 149.634 10.376C151.442 9.032 153.906 8.36 157.026 8.36C159.314 8.36 161.346 8.712 163.122 9.416C164.898 10.12 166.242 11.336 167.154 13.064C167.666 14.024 167.97 14.984 168.066 15.944C168.162 16.904 168.21 17.976 168.21 19.16V35H162.498V29.672L163.314 30.776C162.05 32.52 160.682 33.784 159.21 34.568C157.754 35.336 155.906 35.72 153.666 35.72ZM155.058 30.584C156.258 30.584 157.266 30.376 158.082 29.96C158.914 29.528 159.57 29.04 160.05 28.496C160.546 27.952 160.882 27.496 161.058 27.128C161.394 26.424 161.586 25.608 161.634 24.68C161.698 23.736 161.73 22.952 161.73 22.328L163.65 22.808C161.714 23.128 160.146 23.4 158.946 23.624C157.746 23.832 156.778 24.024 156.042 24.2C155.306 24.376 154.658 24.568 154.098 24.776C153.458 25.032 152.938 25.312 152.538 25.616C152.154 25.904 151.866 26.224 151.674 26.576C151.498 26.928 151.41 27.32 151.41 27.752C151.41 28.344 151.554 28.856 151.842 29.288C152.146 29.704 152.57 30.024 153.114 30.248C153.658 30.472 154.306 30.584 155.058 30.584ZM186.211 35.72C183.635 35.72 181.483 35.12 179.755 33.92C178.027 32.72 176.723 31.088 175.843 29.024C174.979 26.96 174.547 24.632 174.547 22.04C174.547 19.448 174.979 17.12 175.843 15.056C176.707 12.992 177.979 11.36 179.659 10.16C181.339 8.96 183.411 8.36 185.875 8.36C188.355 8.36 190.515 8.952 192.355 10.136C194.195 11.32 195.619 12.944 196.627 15.008C197.651 17.056 198.163 19.4 198.163 22.04C198.163 24.632 197.659 26.96 196.651 29.024C195.659 31.088 194.267 32.72 192.475 33.92C190.683 35.12 188.595 35.72 186.211 35.72ZM173.443 46.52V9.08H179.203V26.84H180.019V46.52H173.443ZM185.155 29.912C186.563 29.912 187.715 29.56 188.611 28.856C189.507 28.152 190.171 27.208 190.603 26.024C191.035 24.824 191.251 23.496 191.251 22.04C191.251 20.6 191.027 19.288 190.579 18.104C190.131 16.904 189.435 15.952 188.491 15.248C187.563 14.528 186.371 14.168 184.915 14.168C183.555 14.168 182.451 14.496 181.603 15.152C180.771 15.808 180.163 16.728 179.779 17.912C179.395 19.096 179.203 20.472 179.203 22.04C179.203 23.608 179.395 24.984 179.779 26.168C180.163 27.352 180.787 28.272 181.651 28.928C182.531 29.584 183.699 29.912 185.155 29.912Z" fill="#08AE05"/>
<path d="M200.084 35L210.644 0.439999H220.388L230.948 35H224.228L214.82 4.52H216.068L206.804 35H200.084ZM206.42 27.8V21.704H224.66V27.8H206.42ZM234.769 35V0.439999H241.297V35H234.769Z" fill="#7FFF00"/>
</svg>
