<svg width="241" height="47" viewBox="0 0 241 47" fill="none" xmlns="http://www.w3.org/2000/svg">
<path d="M0.44 40.76V28.904C1.48 28.904 2.36 28.648 3.08 28.136C3.816 27.608 4.416 26.872 4.88 25.928C5.344 24.968 5.712 23.848 5.984 22.568C6.256 21.288 6.456 19.896 6.584 18.392C6.744 16.472 6.888 14.584 7.016 12.728C7.144 10.856 7.272 8.92 7.4 6.92C7.528 4.904 7.672 2.728 7.832 0.391999L30.776 0.439999V28.904H33.416V40.76H26.888V35H6.968V40.76H0.44ZM10.184 28.904H24.248V6.536L13.784 6.488C13.672 8.072 13.576 9.528 13.496 10.856C13.432 12.184 13.352 13.528 13.256 14.888C13.16 16.248 13.032 17.768 12.872 19.448C12.712 21.128 12.552 22.512 12.392 23.6C12.232 24.672 11.984 25.608 11.648 26.408C11.328 27.208 10.84 28.04 10.184 28.904ZM44.9281 35.72C43.0721 35.72 41.4961 35.368 40.2001 34.664C38.9201 33.944 37.9441 32.992 37.2721 31.808C36.6161 30.608 36.2881 29.288 36.2881 27.848C36.2881 26.648 36.4721 25.552 36.8401 24.56C37.2081 23.568 37.8001 22.696 38.6161 21.944C39.4481 21.176 40.5601 20.536 41.9521 20.024C42.9121 19.672 44.0561 19.36 45.3841 19.088C46.7121 18.816 48.2161 18.56 49.8961 18.32C51.5761 18.064 53.4241 17.784 55.4401 17.48L53.0881 18.776C53.0881 17.24 52.7201 16.112 51.9841 15.392C51.2481 14.672 50.0161 14.312 48.2881 14.312C47.3281 14.312 46.3281 14.544 45.2881 15.008C44.2481 15.472 43.5201 16.296 43.1041 17.48L37.2001 15.608C37.8561 13.464 39.0881 11.72 40.8961 10.376C42.7041 9.032 45.1681 8.36 48.2881 8.36C50.5761 8.36 52.6081 8.712 54.3841 9.416C56.1601 10.12 57.5041 11.336 58.4161 13.064C58.9281 14.024 59.2321 14.984 59.3281 15.944C59.4241 16.904 59.4721 17.976 59.4721 19.16V35H53.7601V29.672L54.5761 30.776C53.3121 32.52 51.9441 33.784 50.4721 34.568C49.0161 35.336 47.1681 35.72 44.9281 35.72ZM46.3201 30.584C47.5201 30.584 48.5281 30.376 49.3441 29.96C50.1761 29.528 50.8321 29.04 51.3121 28.496C51.8081 27.952 52.1441 27.496 52.3201 27.128C52.6561 26.424 52.8481 25.608 52.8961 24.68C52.9601 23.736 52.9921 22.952 52.9921 22.328L54.9121 22.808C52.9761 23.128 51.4081 23.4 50.2081 23.624C49.0081 23.832 48.0401 24.024 47.3041 24.2C46.5681 24.376 45.9201 24.568 45.3601 24.776C44.7201 25.032 44.2001 25.312 43.8001 25.616C43.4161 25.904 43.1281 26.224 42.9361 26.576C42.7601 26.928 42.6721 27.32 42.6721 27.752C42.6721 28.344 42.8161 28.856 43.1041 29.288C43.4081 29.704 43.8321 30.024 44.3761 30.248C44.9201 30.472 45.5681 30.584 46.3201 30.584ZM61.8725 35L71.1365 21.896L62.0645 9.08H69.7445L74.9285 16.76L80.0165 9.08H87.6965L78.6245 21.896L87.9365 35H80.2565L74.9285 27.032L69.5525 35H61.8725ZM113.927 9.08V35H107.687V19.16L95.9754 35H90.7914V9.08H97.0314V24.392L108.791 9.08H113.927ZM119.644 35V9.08H131.788C132.748 9.08 133.588 9.136 134.308 9.248C135.028 9.344 135.628 9.464 136.108 9.608C137.292 9.96 138.372 10.648 139.348 11.672C140.324 12.696 140.812 14.184 140.812 16.136C140.812 17.288 140.628 18.224 140.26 18.944C139.892 19.648 139.404 20.232 138.796 20.696C138.508 20.904 138.22 21.08 137.932 21.224C137.644 21.368 137.356 21.48 137.068 21.56C137.74 21.656 138.348 21.832 138.892 22.088C139.756 22.472 140.508 23.08 141.148 23.912C141.788 24.728 142.108 25.944 142.108 27.56C142.108 29.288 141.684 30.76 140.836 31.976C140.004 33.192 138.748 34.04 137.068 34.52C136.492 34.68 135.812 34.8 135.028 34.88C134.26 34.96 133.452 35 132.604 35H119.644ZM126.268 30.056H132.124C132.46 30.056 132.804 30.024 133.156 29.96C133.524 29.88 133.852 29.784 134.14 29.672C134.604 29.48 134.932 29.152 135.124 28.688C135.332 28.224 135.436 27.752 135.436 27.272C135.436 26.6 135.284 26.072 134.98 25.688C134.692 25.304 134.364 25.032 133.996 24.872C133.692 24.728 133.356 24.648 132.988 24.632C132.636 24.6 132.348 24.584 132.124 24.584H126.268V30.056ZM126.268 19.544H130.252C130.764 19.544 131.244 19.52 131.692 19.472C132.156 19.408 132.54 19.304 132.844 19.16C133.26 18.968 133.572 18.664 133.78 18.248C133.988 17.816 134.092 17.336 134.092 16.808C134.092 16.248 133.972 15.744 133.732 15.296C133.508 14.832 133.132 14.52 132.604 14.36C132.252 14.232 131.804 14.16 131.26 14.144C130.732 14.128 130.396 14.12 130.252 14.12H126.268V19.544ZM153.166 35.72C151.31 35.72 149.734 35.368 148.438 34.664C147.158 33.944 146.182 32.992 145.51 31.808C144.854 30.608 144.526 29.288 144.526 27.848C144.526 26.648 144.71 25.552 145.078 24.56C145.446 23.568 146.038 22.696 146.854 21.944C147.686 21.176 148.798 20.536 150.19 20.024C151.15 19.672 152.294 19.36 153.622 19.088C154.95 18.816 156.454 18.56 158.134 18.32C159.814 18.064 161.662 17.784 163.678 17.48L161.326 18.776C161.326 17.24 160.958 16.112 160.222 15.392C159.486 14.672 158.254 14.312 156.526 14.312C155.566 14.312 154.566 14.544 153.526 15.008C152.486 15.472 151.758 16.296 151.342 17.48L145.438 15.608C146.094 13.464 147.326 11.72 149.134 10.376C150.942 9.032 153.406 8.36 156.526 8.36C158.814 8.36 160.846 8.712 162.622 9.416C164.398 10.12 165.742 11.336 166.654 13.064C167.166 14.024 167.47 14.984 167.566 15.944C167.662 16.904 167.71 17.976 167.71 19.16V35H161.998V29.672L162.814 30.776C161.55 32.52 160.182 33.784 158.71 34.568C157.254 35.336 155.406 35.72 153.166 35.72ZM154.558 30.584C155.758 30.584 156.766 30.376 157.582 29.96C158.414 29.528 159.07 29.04 159.55 28.496C160.046 27.952 160.382 27.496 160.558 27.128C160.894 26.424 161.086 25.608 161.134 24.68C161.198 23.736 161.23 22.952 161.23 22.328L163.15 22.808C161.214 23.128 159.646 23.4 158.446 23.624C157.246 23.832 156.278 24.024 155.542 24.2C154.806 24.376 154.158 24.568 153.598 24.776C152.958 25.032 152.438 25.312 152.038 25.616C151.654 25.904 151.366 26.224 151.174 26.576C150.998 26.928 150.91 27.32 150.91 27.752C150.91 28.344 151.054 28.856 151.342 29.288C151.646 29.704 152.07 30.024 152.614 30.248C153.158 30.472 153.806 30.584 154.558 30.584ZM185.711 35.72C183.135 35.72 180.983 35.12 179.255 33.92C177.527 32.72 176.223 31.088 175.343 29.024C174.479 26.96 174.047 24.632 174.047 22.04C174.047 19.448 174.479 17.12 175.343 15.056C176.207 12.992 177.479 11.36 179.159 10.16C180.839 8.96 182.911 8.36 185.375 8.36C187.855 8.36 190.015 8.952 191.855 10.136C193.695 11.32 195.119 12.944 196.127 15.008C197.151 17.056 197.663 19.4 197.663 22.04C197.663 24.632 197.159 26.96 196.151 29.024C195.159 31.088 193.767 32.72 191.975 33.92C190.183 35.12 188.095 35.72 185.711 35.72ZM172.943 46.52V9.08H178.703V26.84H179.519V46.52H172.943ZM184.655 29.912C186.063 29.912 187.215 29.56 188.111 28.856C189.007 28.152 189.671 27.208 190.103 26.024C190.535 24.824 190.751 23.496 190.751 22.04C190.751 20.6 190.527 19.288 190.079 18.104C189.631 16.904 188.935 15.952 187.991 15.248C187.063 14.528 185.871 14.168 184.415 14.168C183.055 14.168 181.951 14.496 181.103 15.152C180.271 15.808 179.663 16.728 179.279 17.912C178.895 19.096 178.703 20.472 178.703 22.04C178.703 23.608 178.895 24.984 179.279 26.168C179.663 27.352 180.287 28.272 181.151 28.928C182.031 29.584 183.199 29.912 184.655 29.912Z" fill="white"/>
<path d="M199.584 35L210.144 0.439999H219.888L230.448 35H223.728L214.32 4.52H215.568L206.304 35H199.584ZM205.92 27.8V21.704H224.16V27.8H205.92ZM234.269 35V0.439999H240.797V35H234.269Z" fill="#7FFF00"/>
</svg>
